<?xml version="1.0" encoding="UTF-8"?>
<svg id="Calque_1" data-name="Calque 1" xmlns="http://www.w3.org/2000/svg" xmlns:xlink="http://www.w3.org/1999/xlink" viewBox="0 0 51.4 36.45">
  <defs>
    <style>
      .cls-1 {
        fill: none;
      }

      .cls-2 {
        clip-path: url(#clippath);
      }

      .cls-3 {
        fill: #525a53;
      }

      .cls-4 {
        clip-path: url(#clippath-1);
      }
    </style>
    <clipPath id="clippath">
      <rect class="cls-1" width="51.18" height="36.45"/>
    </clipPath>
    <clipPath id="clippath-1">
      <rect class="cls-1" x=".23" width="51.18" height="36.45"/>
    </clipPath>
  </defs>
  <g class="cls-2">
    <path class="cls-3" d="m3.17,12.29c0,.52.1,1.02.28,1.48.19.46.45.87.78,1.22.33.35.72.62,1.17.82.45.2.94.3,1.46.3.7,0,1.32-.17,1.88-.5.56-.33,1.01-.77,1.34-1.31l2.21,1.81c-.61.85-1.39,1.54-2.33,2.05-.94.51-1.98.77-3.1.77-.91,0-1.77-.17-2.58-.52-.81-.35-1.51-.82-2.11-1.43-.6-.6-1.08-1.31-1.43-2.11-.35-.81-.52-1.66-.52-2.58s.17-1.77.52-2.58c.35-.8.82-1.51,1.43-2.11.61-.6,1.31-1.08,2.11-1.43.8-.35,1.66-.52,2.58-.52,1.12,0,2.16.26,3.1.77.94.51,1.72,1.19,2.33,2.05l-2.21,1.81c-.33-.54-.77-.97-1.33-1.31-.56-.33-1.19-.5-1.88-.5-.52,0-1.01.1-1.46.3-.45.2-.84.48-1.17.82s-.59.75-.78,1.22c-.19.47-.28.96-.28,1.48"/>
  </g>
  <polygon class="cls-3" points="14.62 18.78 14.62 15.89 16.92 15.89 16.92 8.68 14.62 8.68 14.62 5.79 22.17 5.79 22.17 8.68 19.87 8.68 19.87 15.89 22.17 15.89 22.17 18.78 14.62 18.78"/>
  <polygon class="cls-3" points="28.51 10.88 32.54 10.88 32.54 13.69 28.51 13.69 28.51 15.89 33.64 15.89 33.64 18.78 25.59 18.78 25.59 5.79 33.64 5.79 33.64 8.68 28.51 8.68 28.51 10.88"/>
  <polygon class="cls-3" points="19.47 23.32 13.42 36.31 15.91 36.31 21.96 23.32 19.47 23.32"/>
  <polygon class="cls-3" points="30.49 0 29.11 2.97 31.6 2.95 32.98 0 30.49 0"/>
  <g class="cls-4">
    <path class="cls-3" d="m27.06,29.81c0,.52.09,1.02.28,1.48.19.46.45.87.78,1.22.33.35.72.62,1.17.82.45.2.94.3,1.46.3.7,0,1.32-.17,1.88-.5.56-.34,1.01-.77,1.33-1.31l2.21,1.81c-.61.85-1.39,1.54-2.33,2.05-.94.51-1.98.77-3.1.77-.91,0-1.77-.17-2.58-.52-.8-.35-1.51-.82-2.11-1.43-.6-.6-1.08-1.31-1.43-2.11-.35-.8-.52-1.66-.52-2.58s.17-1.77.52-2.58c.35-.8.82-1.51,1.43-2.11.6-.6,1.31-1.08,2.11-1.43.81-.35,1.66-.52,2.58-.52,1.12,0,2.15.26,3.1.77.94.51,1.72,1.2,2.33,2.05l-2.21,1.81c-.33-.54-.77-.97-1.33-1.31-.56-.34-1.19-.5-1.88-.5-.52,0-1.01.1-1.46.3-.45.2-.84.47-1.17.82-.33.35-.59.75-.78,1.22-.19.46-.28.96-.28,1.48"/>
    <path class="cls-3" d="m44.76,33.64c.52,0,1.01-.1,1.46-.3s.84-.48,1.17-.82c.33-.35.59-.75.78-1.22s.28-.96.28-1.48-.09-1.02-.28-1.48c-.19-.46-.45-.87-.78-1.22-.33-.35-.72-.62-1.17-.82-.45-.2-.94-.3-1.46-.3s-1.01.1-1.46.3c-.45.2-.84.47-1.17.82-.33.35-.59.75-.78,1.22-.19.46-.28.96-.28,1.48s.09,1.02.28,1.48c.19.46.45.87.78,1.22.33.35.72.62,1.17.82.45.2.94.3,1.46.3m0,2.82c-.92,0-1.78-.17-2.58-.52-.81-.35-1.51-.82-2.11-1.43-.6-.6-1.08-1.31-1.43-2.11-.35-.8-.52-1.66-.52-2.58s.17-1.77.52-2.58c.35-.8.82-1.51,1.43-2.11.6-.6,1.31-1.08,2.11-1.43.8-.35,1.66-.52,2.58-.52s1.77.17,2.58.52c.8.35,1.51.82,2.11,1.43.6.6,1.08,1.31,1.43,2.11.35.81.52,1.67.52,2.58s-.17,1.77-.52,2.58c-.35.81-.82,1.51-1.43,2.11-.6.6-1.31,1.08-2.11,1.43-.81.35-1.66.52-2.58.52"/>
  </g>
</svg>