<svg width="500" viewBox="0 0 3139 1003" xmlns="http://www.w3.org/2000/svg">

<path fill-rule="evenodd" clip-rule="evenodd" d="M513.631 229.502C442.664 239.184 379.853 278.752 340.076 336.372L427.206 475.447L513.631 229.502ZM475.804 382.395L721.832 296.672C683.438 260.118 633.256 235.313 576.525 228.845C560.841 227.057 545.328 226.747 530.127 227.805L475.804 382.395ZM797.365 518.092C786.195 590.804 744.701 651.936 687.35 689.982L658.468 430.561L797.365 518.092ZM519.347 730.352C574.854 736.68 628.205 724.493 673.228 698.699L655.041 535.346L470.156 719.743C485.868 724.814 502.312 728.41 519.347 730.352ZM454.544 714.129C388.009 687.68 336.414 634.131 311.653 568.434L570.98 598.001L454.544 714.129ZM469.584 571.343L306.319 552.729C296.624 520.754 293.157 486.318 297.183 451.009C301.378 414.215 313.287 380.174 331.112 350.319L469.584 571.343ZM578.562 362.475L733.469 308.501C780.036 359.041 805.818 428.216 799.354 501.616L578.562 362.475Z"/>
<path d="M1015.27 344.013C1015.27 356.116 1013.8 367.144 1010.86 377.099C1008 386.981 1003.49 395.504 997.327 402.665C991.168 409.826 983.255 415.341 973.587 419.208C963.919 423.004 952.353 424.901 938.89 424.901C925.713 424.901 914.29 423.004 904.622 419.208C895.026 415.341 887.112 409.862 880.882 402.772C874.651 395.611 870.032 387.053 867.024 377.099C864.017 367.144 862.513 356.044 862.513 343.798C862.513 327.47 865.198 313.29 870.569 301.259C876.012 289.156 884.391 279.81 895.706 273.222C907.021 266.562 921.487 263.231 939.104 263.231C957.008 263.231 971.546 266.562 982.718 273.222C993.961 279.882 1002.2 289.263 1007.42 301.366C1012.65 313.469 1015.27 327.685 1015.27 344.013ZM907.2 344.013C907.2 353.466 908.274 361.594 910.423 368.397C912.571 375.201 915.973 380.429 920.628 384.081C925.283 387.733 931.37 389.56 938.89 389.56C946.696 389.56 952.89 387.733 957.474 384.081C962.129 380.429 965.459 375.201 967.464 368.397C969.541 361.594 970.579 353.466 970.579 344.013C970.579 329.833 968.216 318.625 963.489 310.39C958.763 302.154 950.634 298.036 939.104 298.036C931.442 298.036 925.247 299.898 920.521 303.622C915.866 307.346 912.464 312.646 910.315 319.521C908.239 326.396 907.2 334.56 907.2 344.013ZM1170.53 301.044V422.753H1138.84L1133.58 407.606H1131.11C1128.6 411.688 1125.42 415.019 1121.55 417.597C1117.75 420.103 1113.53 421.929 1108.87 423.075C1104.22 424.293 1099.39 424.901 1094.37 424.901C1086.42 424.901 1079.23 423.362 1072.78 420.282C1066.41 417.203 1061.32 412.369 1057.53 405.78C1053.8 399.192 1051.94 390.705 1051.94 380.321V301.044H1093.94V367.538C1093.94 375.416 1095.05 381.431 1097.27 385.585C1099.56 389.667 1103.29 391.708 1108.44 391.708C1113.74 391.708 1117.83 390.276 1120.69 387.411C1123.63 384.547 1125.67 380.321 1126.81 374.735C1127.96 369.149 1128.53 362.346 1128.53 354.325V301.044H1170.53ZM1242.44 422.753L1196.04 301.044H1239.86L1260.49 373.017C1260.7 373.661 1261.06 375.308 1261.56 377.958C1262.14 380.608 1262.42 383.078 1262.42 385.37H1263.17C1263.17 382.935 1263.43 380.608 1263.93 378.388C1264.43 376.168 1264.82 374.449 1265.11 373.231L1286.7 301.044H1330.42L1284.01 422.753H1242.44ZM1429.51 298.896C1431.8 298.896 1434.2 299.075 1436.7 299.433C1439.21 299.719 1441.07 299.97 1442.29 300.185L1438.53 339.823C1437.17 339.465 1435.42 339.179 1433.27 338.964C1431.12 338.677 1428.11 338.534 1424.24 338.534C1421.59 338.534 1418.76 338.785 1415.76 339.286C1412.75 339.787 1409.88 340.862 1407.16 342.509C1404.51 344.084 1402.33 346.519 1400.61 349.813C1398.89 353.036 1398.03 357.405 1398.03 362.919V422.753H1356.03V301.044H1387.29L1393.84 320.487H1395.88C1398.1 316.477 1400.93 312.86 1404.37 309.638C1407.88 306.343 1411.78 303.729 1416.08 301.796C1420.45 299.862 1424.92 298.896 1429.51 298.896ZM1586.6 361.63C1586.6 371.799 1585.2 380.823 1582.41 388.7C1579.62 396.578 1575.57 403.202 1570.27 408.573C1564.97 413.944 1558.56 418.026 1551.04 420.819C1543.52 423.541 1535.04 424.901 1525.58 424.901C1516.78 424.901 1508.68 423.541 1501.31 420.819C1494 418.026 1487.63 413.944 1482.19 408.573C1476.74 403.202 1472.52 396.578 1469.51 388.7C1466.57 380.823 1465.11 371.799 1465.11 361.63C1465.11 348.166 1467.54 336.78 1472.41 327.47C1477.35 318.16 1484.37 311.07 1493.47 306.2C1502.63 301.33 1513.55 298.896 1526.23 298.896C1537.9 298.896 1548.29 301.33 1557.38 306.2C1566.48 311.07 1573.6 318.16 1578.76 327.47C1583.99 336.78 1586.6 348.166 1586.6 361.63ZM1507.75 361.63C1507.75 368.576 1508.36 374.449 1509.58 379.247C1510.8 383.974 1512.73 387.59 1515.38 390.097C1518.1 392.532 1521.65 393.749 1526.01 393.749C1530.38 393.749 1533.86 392.532 1536.43 390.097C1539.01 387.59 1540.87 383.974 1542.02 379.247C1543.24 374.449 1543.85 368.576 1543.85 361.63C1543.85 354.683 1543.24 348.882 1542.02 344.228C1540.87 339.573 1538.98 336.063 1536.33 333.7C1533.75 331.337 1530.24 330.155 1525.8 330.155C1519.43 330.155 1514.81 332.805 1511.94 338.104C1509.15 343.404 1507.75 351.246 1507.75 361.63ZM1663.88 301.044V422.753H1621.88V301.044H1663.88ZM1643.04 252.06C1649.06 252.06 1654.28 253.313 1658.72 255.819C1663.24 258.326 1665.49 263.303 1665.49 270.751C1665.49 277.984 1663.24 282.89 1658.72 285.468C1654.28 287.974 1649.06 289.228 1643.04 289.228C1636.88 289.228 1631.62 287.974 1627.25 285.468C1622.95 282.89 1620.8 277.984 1620.8 270.751C1620.8 263.303 1622.95 258.326 1627.25 255.819C1631.62 253.313 1636.88 252.06 1643.04 252.06ZM1777.68 298.896C1779.97 298.896 1782.37 299.075 1784.88 299.433C1787.39 299.719 1789.25 299.97 1790.47 300.185L1786.71 339.823C1785.35 339.465 1783.59 339.179 1781.44 338.964C1779.29 338.677 1776.29 338.534 1772.42 338.534C1769.77 338.534 1766.94 338.785 1763.93 339.286C1760.92 339.787 1758.06 340.862 1755.34 342.509C1752.69 344.084 1750.5 346.519 1748.79 349.813C1747.07 353.036 1746.21 357.405 1746.21 362.919V422.753H1704.21V301.044H1735.47L1742.02 320.487H1744.06C1746.28 316.477 1749.11 312.86 1752.55 309.638C1756.06 306.343 1759.96 303.729 1764.25 301.796C1768.62 299.862 1773.1 298.896 1777.68 298.896Z" />
<path d="M932.01 561.556C925.375 561.556 920.111 559.291 916.219 554.761C912.359 550.231 910.429 543.5 910.429 534.567C910.429 525.539 912.407 518.729 916.363 514.135C920.318 509.509 925.582 507.196 932.154 507.196C934.929 507.196 937.353 507.563 939.427 508.297C941.501 509.031 943.287 510.02 944.786 511.264C946.286 512.476 947.546 513.864 948.567 515.427H949.141C949.013 514.438 948.886 513.082 948.758 511.359C948.63 509.637 948.567 508.233 948.567 507.148V486.142H956.51V560.599H950.098L948.902 553.134H948.567C947.578 554.697 946.318 556.117 944.786 557.393C943.287 558.669 941.485 559.689 939.379 560.455C937.306 561.189 934.849 561.556 932.01 561.556ZM933.254 554.952C938.869 554.952 942.84 553.357 945.169 550.167C947.498 546.977 948.662 542.24 948.662 535.955V534.52C948.662 527.852 947.546 522.732 945.313 519.159C943.112 515.586 939.092 513.8 933.254 513.8C928.373 513.8 924.721 515.682 922.296 519.446C919.872 523.179 918.659 528.283 918.659 534.759C918.659 541.203 919.856 546.179 922.248 549.688C924.673 553.198 928.341 554.952 933.254 554.952ZM984.522 490.64L985.24 491.692C984.666 494.021 983.932 496.525 983.039 499.205C982.146 501.853 981.173 504.501 980.12 507.148C979.067 509.796 978.015 512.285 976.962 514.613H971.124C971.602 512.795 972.081 510.849 972.559 508.775C973.07 506.702 973.548 504.596 973.995 502.459C974.442 500.322 974.84 498.248 975.191 496.238C975.574 494.229 975.893 492.362 976.148 490.64H984.522ZM1007.75 486.142V508.393C1007.75 509.669 1007.72 510.961 1007.65 512.269C1007.59 513.545 1007.48 514.725 1007.32 515.81H1007.85C1008.93 513.959 1010.3 512.412 1011.96 511.168C1013.65 509.892 1015.57 508.935 1017.7 508.297C1019.84 507.627 1022.1 507.292 1024.5 507.292C1028.71 507.292 1032.22 507.962 1035.02 509.302C1037.86 510.642 1039.99 512.715 1041.39 515.522C1042.82 518.33 1043.54 521.966 1043.54 526.433V560.599H1035.69V526.959C1035.69 522.589 1034.69 519.319 1032.68 517.149C1030.7 514.98 1027.66 513.896 1023.54 513.896C1019.65 513.896 1016.54 514.645 1014.21 516.145C1011.91 517.612 1010.25 519.781 1009.23 522.652C1008.24 525.523 1007.75 529.033 1007.75 533.18V560.599H999.806V486.142H1007.75ZM1072.75 508.153V560.599H1064.81V508.153H1072.75ZM1068.88 488.534C1070.18 488.534 1071.3 488.965 1072.22 489.826C1073.18 490.656 1073.66 491.964 1073.66 493.75C1073.66 495.505 1073.18 496.812 1072.22 497.674C1071.3 498.535 1070.18 498.966 1068.88 498.966C1067.5 498.966 1066.35 498.535 1065.43 497.674C1064.54 496.812 1064.09 495.505 1064.09 493.75C1064.09 491.964 1064.54 490.656 1065.43 489.826C1066.35 488.965 1067.5 488.534 1068.88 488.534ZM1128.42 546.243C1128.42 549.593 1127.58 552.416 1125.89 554.713C1124.23 556.978 1121.83 558.685 1118.71 559.833C1115.61 560.981 1111.91 561.556 1107.61 561.556C1103.94 561.556 1100.76 561.269 1098.08 560.694C1095.4 560.12 1093.06 559.307 1091.05 558.254V550.933C1093.19 551.985 1095.74 552.942 1098.71 553.804C1101.67 554.665 1104.7 555.096 1107.8 555.096C1112.33 555.096 1115.61 554.362 1117.65 552.895C1119.7 551.427 1120.72 549.433 1120.72 546.913C1120.72 545.478 1120.3 544.217 1119.47 543.133C1118.68 542.016 1117.32 540.948 1115.41 539.927C1113.49 538.874 1110.84 537.726 1107.46 536.481C1104.11 535.205 1101.21 533.945 1098.75 532.701C1096.33 531.425 1094.45 529.878 1093.11 528.06C1091.8 526.241 1091.15 523.881 1091.15 520.978C1091.15 516.543 1092.93 513.146 1096.5 510.785C1100.11 508.393 1104.83 507.196 1110.67 507.196C1113.83 507.196 1116.78 507.515 1119.52 508.153C1122.3 508.759 1124.88 509.589 1127.27 510.642L1124.59 517.006C1122.42 516.081 1120.11 515.299 1117.65 514.661C1115.2 514.023 1112.69 513.704 1110.14 513.704C1106.47 513.704 1103.65 514.31 1101.67 515.522C1099.73 516.735 1098.75 518.394 1098.75 520.499C1098.75 522.126 1099.2 523.466 1100.09 524.519C1101.02 525.571 1102.49 526.56 1104.5 527.485C1106.51 528.41 1109.15 529.495 1112.44 530.739C1115.72 531.951 1118.56 533.212 1120.96 534.52C1123.35 535.796 1125.18 537.359 1126.46 539.209C1127.77 541.027 1128.42 543.372 1128.42 546.243ZM1163.04 555.048C1164.35 555.048 1165.69 554.936 1167.06 554.713C1168.43 554.49 1169.55 554.218 1170.41 553.899V560.072C1169.48 560.487 1168.19 560.838 1166.53 561.125C1164.9 561.412 1163.31 561.556 1161.75 561.556C1158.97 561.556 1156.45 561.077 1154.18 560.12C1151.92 559.131 1150.1 557.472 1148.73 555.144C1147.39 552.815 1146.72 549.593 1146.72 545.478V514.374H1139.26V510.498L1146.77 507.388L1149.93 495.999H1154.71V508.153H1170.07V514.374H1154.71V545.238C1154.71 548.524 1155.46 550.98 1156.96 552.607C1158.49 554.234 1160.52 555.048 1163.04 555.048ZM1231.15 534.28C1231.15 538.587 1230.59 542.431 1229.47 545.812C1228.36 549.194 1226.75 552.049 1224.64 554.378C1222.54 556.707 1219.98 558.493 1216.99 559.737C1214.02 560.95 1210.65 561.556 1206.89 561.556C1203.38 561.556 1200.16 560.95 1197.22 559.737C1194.32 558.493 1191.8 556.707 1189.66 554.378C1187.56 552.049 1185.91 549.194 1184.73 545.812C1183.58 542.431 1183.01 538.587 1183.01 534.28C1183.01 528.538 1183.98 523.657 1185.93 519.638C1187.88 515.586 1190.65 512.508 1194.26 510.402C1197.89 508.265 1202.22 507.196 1207.22 507.196C1212.01 507.196 1216.19 508.265 1219.76 510.402C1223.37 512.54 1226.16 515.634 1228.13 519.686C1230.14 523.705 1231.15 528.57 1231.15 534.28ZM1191.24 534.28C1191.24 538.491 1191.8 542.144 1192.92 545.238C1194.03 548.333 1195.76 550.725 1198.08 552.416C1200.41 554.107 1203.41 554.952 1207.08 554.952C1210.72 554.952 1213.7 554.107 1216.03 552.416C1218.39 550.725 1220.13 548.333 1221.24 545.238C1222.36 542.144 1222.92 538.491 1222.92 534.28C1222.92 530.101 1222.36 526.496 1221.24 523.466C1220.13 520.403 1218.4 518.043 1216.08 516.384C1213.75 514.725 1210.73 513.896 1207.03 513.896C1201.58 513.896 1197.57 515.698 1195.02 519.303C1192.5 522.908 1191.24 527.9 1191.24 534.28ZM1257.73 508.153V560.599H1249.78V508.153H1257.73ZM1253.85 488.534C1255.16 488.534 1256.27 488.965 1257.2 489.826C1258.16 490.656 1258.64 491.964 1258.64 493.75C1258.64 495.505 1258.16 496.812 1257.2 497.674C1256.27 498.535 1255.16 498.966 1253.85 498.966C1252.48 498.966 1251.33 498.535 1250.4 497.674C1249.51 496.812 1249.06 495.505 1249.06 493.75C1249.06 491.964 1249.51 490.656 1250.4 489.826C1251.33 488.965 1252.48 488.534 1253.85 488.534ZM1303.3 507.196C1304.35 507.196 1305.45 507.26 1306.6 507.388C1307.75 507.483 1308.77 507.627 1309.66 507.818L1308.66 515.188C1307.8 514.964 1306.84 514.789 1305.79 514.661C1304.74 514.534 1303.75 514.47 1302.82 514.47C1300.72 514.47 1298.72 514.9 1296.84 515.762C1294.99 516.591 1293.36 517.803 1291.96 519.398C1290.56 520.962 1289.45 522.86 1288.66 525.093C1287.86 527.294 1287.46 529.75 1287.46 532.462V560.599H1279.47V508.153H1286.07L1286.93 517.819H1287.27C1288.35 515.873 1289.66 514.103 1291.19 512.508C1292.72 510.881 1294.5 509.589 1296.5 508.632C1298.55 507.675 1300.81 507.196 1303.3 507.196ZM1344.66 507.196C1349.13 507.196 1352.96 508.185 1356.15 510.163C1359.34 512.141 1361.78 514.916 1363.47 518.489C1365.16 522.03 1366 526.177 1366 530.931V535.859H1329.78C1329.88 542.016 1331.41 546.706 1334.37 549.928C1337.34 553.15 1341.52 554.761 1346.91 554.761C1350.23 554.761 1353.16 554.458 1355.72 553.852C1358.27 553.245 1360.92 552.352 1363.66 551.172V558.158C1361.01 559.339 1358.38 560.2 1355.76 560.742C1353.18 561.285 1350.12 561.556 1346.58 561.556C1341.54 561.556 1337.13 560.535 1333.37 558.493C1329.64 556.42 1326.73 553.389 1324.66 549.401C1322.59 545.414 1321.55 540.533 1321.55 534.759C1321.55 529.112 1322.49 524.231 1324.37 520.116C1326.29 515.969 1328.97 512.779 1332.41 510.546C1335.89 508.313 1339.97 507.196 1344.66 507.196ZM1344.57 513.704C1340.32 513.704 1336.94 515.092 1334.42 517.867C1331.9 520.643 1330.4 524.519 1329.92 529.495H1357.68C1357.65 526.369 1357.15 523.625 1356.19 521.265C1355.27 518.872 1353.85 517.022 1351.94 515.714C1350.02 514.374 1347.57 513.704 1344.57 513.704ZM1433.42 561.556C1426.78 561.556 1421.52 559.291 1417.63 554.761C1413.77 550.231 1411.84 543.5 1411.84 534.567C1411.84 525.539 1413.81 518.729 1417.77 514.135C1421.73 509.509 1426.99 507.196 1433.56 507.196C1436.34 507.196 1438.76 507.563 1440.83 508.297C1442.91 509.031 1444.69 510.02 1446.19 511.264C1447.69 512.476 1448.95 513.864 1449.97 515.427H1450.55C1450.42 514.438 1450.29 513.082 1450.17 511.359C1450.04 509.637 1449.97 508.233 1449.97 507.148V486.142H1457.92V560.599H1451.51L1450.31 553.134H1449.97C1448.99 554.697 1447.73 556.117 1446.19 557.393C1444.69 558.669 1442.89 559.689 1440.79 560.455C1438.71 561.189 1436.26 561.556 1433.42 561.556ZM1434.66 554.952C1440.28 554.952 1444.25 553.357 1446.58 550.167C1448.91 546.977 1450.07 542.24 1450.07 535.955V534.52C1450.07 527.852 1448.95 522.732 1446.72 519.159C1444.52 515.586 1440.5 513.8 1434.66 513.8C1429.78 513.8 1426.13 515.682 1423.7 519.446C1421.28 523.179 1420.07 528.283 1420.07 534.759C1420.07 541.203 1421.26 546.179 1423.66 549.688C1426.08 553.198 1429.75 554.952 1434.66 554.952ZM1499.85 507.196C1504.32 507.196 1508.15 508.185 1511.34 510.163C1514.53 512.141 1516.97 514.916 1518.66 518.489C1520.35 522.03 1521.2 526.177 1521.2 530.931V535.859H1484.97C1485.07 542.016 1486.6 546.706 1489.57 549.928C1492.53 553.15 1496.71 554.761 1502.1 554.761C1505.42 554.761 1508.36 554.458 1510.91 553.852C1513.46 553.245 1516.11 552.352 1518.85 551.172V558.158C1516.2 559.339 1513.57 560.2 1510.96 560.742C1508.37 561.285 1505.31 561.556 1501.77 561.556C1496.73 561.556 1492.33 560.535 1488.56 558.493C1484.83 556.42 1481.93 553.389 1479.85 549.401C1477.78 545.414 1476.74 540.533 1476.74 534.759C1476.74 529.112 1477.68 524.231 1479.57 520.116C1481.48 515.969 1484.16 512.779 1487.6 510.546C1491.08 508.313 1495.17 507.196 1499.85 507.196ZM1499.76 513.704C1495.52 513.704 1492.13 515.092 1489.61 517.867C1487.09 520.643 1485.6 524.519 1485.12 529.495H1512.87C1512.84 526.369 1512.34 523.625 1511.39 521.265C1510.46 518.872 1509.04 517.022 1507.13 515.714C1505.21 514.374 1502.76 513.704 1499.76 513.704ZM1577.94 560.599H1569.95V486.142H1577.94V560.599ZM1605.9 490.64L1606.62 491.692C1606.05 494.021 1605.31 496.525 1604.42 499.205C1603.53 501.853 1602.55 504.501 1601.5 507.148C1600.45 509.796 1599.4 512.285 1598.34 514.613H1592.51C1592.98 512.795 1593.46 510.849 1593.94 508.775C1594.45 506.702 1594.93 504.596 1595.38 502.459C1595.82 500.322 1596.22 498.248 1596.57 496.238C1596.96 494.229 1597.27 492.362 1597.53 490.64H1605.9ZM1640.81 507.292C1647.06 507.292 1651.7 508.696 1654.73 511.503C1657.76 514.31 1659.28 518.792 1659.28 524.949V560.599H1653.49L1651.96 552.847H1651.57C1650.11 554.761 1648.57 556.372 1646.98 557.68C1645.38 558.956 1643.53 559.929 1641.43 560.599C1639.36 561.237 1636.8 561.556 1633.77 561.556C1630.58 561.556 1627.74 560.997 1625.25 559.881C1622.8 558.764 1620.85 557.074 1619.42 554.809C1618.01 552.544 1617.31 549.673 1617.31 546.195C1617.31 540.964 1619.38 536.944 1623.53 534.137C1627.68 531.329 1634 529.798 1642.48 529.543L1651.53 529.16V525.954C1651.53 521.424 1650.55 518.25 1648.61 516.432C1646.66 514.613 1643.92 513.704 1640.38 513.704C1637.63 513.704 1635.02 514.103 1632.53 514.9C1630.04 515.698 1627.68 516.639 1625.45 517.724L1623.01 511.694C1625.37 510.482 1628.08 509.445 1631.14 508.584C1634.2 507.723 1637.43 507.292 1640.81 507.292ZM1651.43 534.759L1643.44 535.094C1636.9 535.349 1632.29 536.418 1629.61 538.3C1626.93 540.182 1625.59 542.846 1625.59 546.291C1625.59 549.29 1626.5 551.507 1628.32 552.942C1630.14 554.378 1632.54 555.096 1635.54 555.096C1640.2 555.096 1644.01 553.804 1646.98 551.22C1649.95 548.636 1651.43 544.76 1651.43 539.592V534.759ZM1704.37 507.196C1705.43 507.196 1706.53 507.26 1707.67 507.388C1708.82 507.483 1709.84 507.627 1710.74 507.818L1709.73 515.188C1708.87 514.964 1707.91 514.789 1706.86 514.661C1705.81 514.534 1704.82 514.47 1703.89 514.47C1701.79 514.47 1699.79 514.9 1697.91 515.762C1696.06 516.591 1694.44 517.803 1693.03 519.398C1691.63 520.962 1690.53 522.86 1689.73 525.093C1688.93 527.294 1688.53 529.75 1688.53 532.462V560.599H1680.54V508.153H1687.15L1688.01 517.819H1688.34C1689.43 515.873 1690.73 514.103 1692.27 512.508C1693.8 510.881 1695.57 509.589 1697.58 508.632C1699.62 507.675 1701.88 507.196 1704.37 507.196ZM1742.48 555.048C1743.79 555.048 1745.13 554.936 1746.5 554.713C1747.87 554.49 1748.99 554.218 1749.85 553.899V560.072C1748.93 560.487 1747.63 560.838 1745.97 561.125C1744.35 561.412 1742.75 561.556 1741.19 561.556C1738.41 561.556 1735.89 561.077 1733.63 560.12C1731.36 559.131 1729.55 557.472 1728.17 555.144C1726.83 552.815 1726.16 549.593 1726.16 545.478V514.374H1718.7V510.498L1726.21 507.388L1729.37 495.999H1734.16V508.153H1749.52V514.374H1734.16V545.238C1734.16 548.524 1734.91 550.98 1736.4 552.607C1737.94 554.234 1739.96 555.048 1742.48 555.048ZM933.541 632.196C938.007 632.196 941.836 633.185 945.026 635.163C948.216 637.141 950.656 639.916 952.347 643.489C954.038 647.03 954.883 651.177 954.883 655.931V660.859H918.659C918.755 667.016 920.286 671.706 923.253 674.928C926.22 678.15 930.399 679.761 935.79 679.761C939.108 679.761 942.043 679.458 944.595 678.852C947.147 678.245 949.795 677.352 952.538 676.172V683.158C949.891 684.339 947.259 685.2 944.643 685.742C942.059 686.285 938.996 686.556 935.455 686.556C930.415 686.556 926.013 685.535 922.248 683.493C918.516 681.42 915.613 678.389 913.539 674.401C911.466 670.414 910.429 665.533 910.429 659.759C910.429 654.112 911.37 649.231 913.252 645.116C915.166 640.969 917.846 637.779 921.291 635.546C924.768 633.313 928.852 632.196 933.541 632.196ZM933.446 638.704C929.203 638.704 925.821 640.092 923.301 642.867C920.781 645.643 919.281 649.519 918.803 654.495H946.557C946.525 651.369 946.031 648.625 945.073 646.265C944.148 643.872 942.729 642.022 940.815 640.714C938.901 639.374 936.444 638.704 933.446 638.704ZM990.217 680.048C991.525 680.048 992.864 679.936 994.236 679.713C995.608 679.49 996.724 679.218 997.586 678.899V685.072C996.661 685.487 995.369 685.838 993.71 686.125C992.083 686.412 990.488 686.556 988.925 686.556C986.149 686.556 983.629 686.077 981.364 685.12C979.099 684.131 977.281 682.472 975.909 680.144C974.569 677.815 973.899 674.593 973.899 670.478V639.374H966.434V635.498L973.947 632.388L977.105 620.999H981.89V633.153H997.251V639.374H981.89V670.238C981.89 673.524 982.64 675.98 984.14 677.607C985.671 679.234 987.696 680.048 990.217 680.048ZM1062.13 686.556C1055.49 686.556 1050.23 684.291 1046.34 679.761C1042.48 675.231 1040.55 668.5 1040.55 659.567C1040.55 650.539 1042.52 643.729 1046.48 639.135C1050.44 634.509 1055.7 632.196 1062.27 632.196C1065.05 632.196 1067.47 632.563 1069.54 633.297C1071.62 634.031 1073.4 635.02 1074.9 636.264C1076.4 637.476 1077.66 638.864 1078.68 640.427H1079.26C1079.13 639.438 1079 638.082 1078.88 636.359C1078.75 634.637 1078.68 633.233 1078.68 632.148V611.142H1086.63V685.599H1080.22L1079.02 678.134H1078.68C1077.7 679.697 1076.44 681.117 1074.9 682.393C1073.4 683.669 1071.6 684.689 1069.5 685.455C1067.42 686.189 1064.97 686.556 1062.13 686.556ZM1063.37 679.952C1068.99 679.952 1072.96 678.357 1075.29 675.167C1077.62 671.977 1078.78 667.24 1078.78 660.955V659.52C1078.78 652.852 1077.66 647.732 1075.43 644.159C1073.23 640.586 1069.21 638.8 1063.37 638.8C1058.49 638.8 1054.84 640.682 1052.41 644.446C1049.99 648.179 1048.78 653.283 1048.78 659.759C1048.78 666.203 1049.97 671.179 1052.37 674.688C1054.79 678.198 1058.46 679.952 1063.37 679.952ZM1128.57 632.196C1133.03 632.196 1136.86 633.185 1140.05 635.163C1143.24 637.141 1145.68 639.916 1147.37 643.489C1149.06 647.03 1149.91 651.177 1149.91 655.931V660.859H1113.68C1113.78 667.016 1115.31 671.706 1118.28 674.928C1121.24 678.15 1125.42 679.761 1130.81 679.761C1134.13 679.761 1137.07 679.458 1139.62 678.852C1142.17 678.245 1144.82 677.352 1147.56 676.172V683.158C1144.91 684.339 1142.28 685.2 1139.67 685.742C1137.08 686.285 1134.02 686.556 1130.48 686.556C1125.44 686.556 1121.04 685.535 1117.27 683.493C1113.54 681.42 1110.64 678.389 1108.56 674.401C1106.49 670.414 1105.45 665.533 1105.45 659.759C1105.45 654.112 1106.39 649.231 1108.28 645.116C1110.19 640.969 1112.87 637.779 1116.32 635.546C1119.79 633.313 1123.88 632.196 1128.57 632.196ZM1128.47 638.704C1124.23 638.704 1120.85 640.092 1118.32 642.867C1115.8 645.643 1114.31 649.519 1113.83 654.495H1141.58C1141.55 651.369 1141.05 648.625 1140.1 646.265C1139.17 643.872 1137.75 642.022 1135.84 640.714C1133.92 639.374 1131.47 638.704 1128.47 638.704ZM1255.6 632.196C1261.38 632.196 1265.73 633.712 1268.66 636.742C1271.6 639.741 1273.07 644.574 1273.07 651.241V685.599H1265.22V651.624C1265.22 647.381 1264.29 644.207 1262.44 642.102C1260.63 639.964 1257.91 638.896 1254.31 638.896C1249.24 638.896 1245.55 640.363 1243.26 643.298C1240.96 646.233 1239.81 650.555 1239.81 656.266V685.599H1231.91V651.624C1231.91 648.785 1231.5 646.424 1230.67 644.542C1229.87 642.66 1228.66 641.256 1227.03 640.331C1225.44 639.374 1223.41 638.896 1220.96 638.896C1217.48 638.896 1214.69 639.613 1212.58 641.049C1210.48 642.484 1208.95 644.622 1207.99 647.461C1207.06 650.268 1206.6 653.729 1206.6 657.845V685.599H1198.66V633.153H1205.07L1206.27 640.57H1206.7C1207.75 638.752 1209.07 637.221 1210.67 635.977C1212.26 634.732 1214.05 633.791 1216.03 633.153C1218.01 632.515 1220.11 632.196 1222.34 632.196C1226.33 632.196 1229.67 632.946 1232.35 634.445C1235.06 635.913 1237.02 638.162 1238.23 641.192H1238.66C1240.38 638.162 1242.75 635.913 1245.74 634.445C1248.74 632.946 1252.03 632.196 1255.6 632.196ZM1337.59 633.153V685.599H1331.08L1329.93 678.229H1329.5C1328.42 680.048 1327.02 681.579 1325.29 682.823C1323.57 684.067 1321.62 684.993 1319.45 685.599C1317.32 686.237 1315.04 686.556 1312.61 686.556C1308.46 686.556 1304.99 685.886 1302.18 684.546C1299.37 683.206 1297.25 681.132 1295.82 678.325C1294.41 675.518 1293.71 671.913 1293.71 667.511V633.153H1301.75V666.937C1301.75 671.307 1302.74 674.577 1304.72 676.746C1306.69 678.883 1309.71 679.952 1313.76 679.952C1317.65 679.952 1320.75 679.218 1323.04 677.751C1325.37 676.284 1327.05 674.13 1328.07 671.291C1329.09 668.42 1329.6 664.911 1329.6 660.764V633.153H1337.59ZM1393.21 671.243C1393.21 674.593 1392.37 677.416 1390.68 679.713C1389.02 681.978 1386.63 683.685 1383.5 684.833C1380.4 685.981 1376.7 686.556 1372.4 686.556C1368.73 686.556 1365.55 686.269 1362.88 685.694C1360.2 685.12 1357.85 684.307 1355.84 683.254V675.933C1357.98 676.985 1360.53 677.942 1363.5 678.804C1366.46 679.665 1369.49 680.096 1372.59 680.096C1377.12 680.096 1380.4 679.362 1382.45 677.895C1384.49 676.427 1385.51 674.433 1385.51 671.913C1385.51 670.478 1385.09 669.217 1384.26 668.133C1383.47 667.016 1382.11 665.948 1380.2 664.927C1378.28 663.874 1375.64 662.726 1372.25 661.481C1368.9 660.205 1366 658.945 1363.54 657.701C1361.12 656.425 1359.24 654.878 1357.9 653.06C1356.59 651.241 1355.94 648.881 1355.94 645.978C1355.94 641.543 1357.72 638.146 1361.3 635.785C1364.9 633.393 1369.62 632.196 1375.46 632.196C1378.62 632.196 1381.57 632.515 1384.31 633.153C1387.09 633.759 1389.67 634.589 1392.06 635.642L1389.38 642.006C1387.22 641.081 1384.9 640.299 1382.45 639.661C1379.99 639.023 1377.49 638.704 1374.93 638.704C1371.27 638.704 1368.44 639.31 1366.46 640.522C1364.52 641.735 1363.54 643.394 1363.54 645.499C1363.54 647.126 1363.99 648.466 1364.88 649.519C1365.81 650.571 1367.28 651.56 1369.29 652.485C1371.3 653.41 1373.94 654.495 1377.23 655.739C1380.52 656.951 1383.36 658.212 1385.75 659.52C1388.14 660.796 1389.97 662.359 1391.25 664.209C1392.56 666.027 1393.21 668.372 1393.21 671.243ZM1431.08 632.196C1435.55 632.196 1439.38 633.185 1442.57 635.163C1445.76 637.141 1448.2 639.916 1449.89 643.489C1451.58 647.03 1452.42 651.177 1452.42 655.931V660.859H1416.2C1416.3 667.016 1417.83 671.706 1420.79 674.928C1423.76 678.15 1427.94 679.761 1433.33 679.761C1436.65 679.761 1439.58 679.458 1442.14 678.852C1444.69 678.245 1447.34 677.352 1450.08 676.172V683.158C1447.43 684.339 1444.8 685.2 1442.18 685.742C1439.6 686.285 1436.54 686.556 1433 686.556C1427.96 686.556 1423.55 685.535 1419.79 683.493C1416.06 681.42 1413.15 678.389 1411.08 674.401C1409.01 670.414 1407.97 665.533 1407.97 659.759C1407.97 654.112 1408.91 649.231 1410.79 645.116C1412.71 640.969 1415.39 637.779 1418.83 635.546C1422.31 633.313 1426.39 632.196 1431.08 632.196ZM1430.99 638.704C1426.74 638.704 1423.36 640.092 1420.84 642.867C1418.32 645.643 1416.82 649.519 1416.34 654.495H1444.1C1444.07 651.369 1443.57 648.625 1442.61 646.265C1441.69 643.872 1440.27 642.022 1438.36 640.714C1436.44 639.374 1433.99 638.704 1430.99 638.704ZM1444.24 610.52V611.477C1443.6 612.402 1442.73 613.518 1441.61 614.826C1440.53 616.102 1439.31 617.458 1437.97 618.894C1436.63 620.297 1435.28 621.637 1433.91 622.913C1432.57 624.189 1431.32 625.29 1430.17 626.215H1424.86V625.066C1425.88 623.854 1427 622.403 1428.21 620.712C1429.42 618.989 1430.6 617.235 1431.75 615.448C1432.9 613.63 1433.86 611.987 1434.62 610.52H1444.24ZM1516.04 659.28C1516.04 663.587 1515.48 667.431 1514.36 670.812C1513.25 674.194 1511.64 677.049 1509.53 679.378C1507.43 681.707 1504.87 683.493 1501.87 684.737C1498.91 685.95 1495.54 686.556 1491.78 686.556C1488.27 686.556 1485.05 685.95 1482.11 684.737C1479.21 683.493 1476.69 681.707 1474.55 679.378C1472.45 677.049 1470.8 674.194 1469.62 670.812C1468.47 667.431 1467.9 663.587 1467.9 659.28C1467.9 653.538 1468.87 648.657 1470.82 644.638C1472.76 640.586 1475.54 637.508 1479.14 635.402C1482.78 633.265 1487.1 632.196 1492.11 632.196C1496.9 632.196 1501.08 633.265 1504.65 635.402C1508.25 637.54 1511.05 640.634 1513.02 644.686C1515.03 648.705 1516.04 653.57 1516.04 659.28ZM1476.13 659.28C1476.13 663.491 1476.69 667.144 1477.8 670.238C1478.92 673.333 1480.64 675.725 1482.97 677.416C1485.3 679.107 1488.3 679.952 1491.97 679.952C1495.61 679.952 1498.59 679.107 1500.92 677.416C1503.28 675.725 1505.02 673.333 1506.13 670.238C1507.25 667.144 1507.81 663.491 1507.81 659.28C1507.81 655.101 1507.25 651.496 1506.13 648.466C1505.02 645.403 1503.29 643.043 1500.97 641.384C1498.64 639.725 1495.62 638.896 1491.92 638.896C1486.47 638.896 1482.46 640.698 1479.91 644.303C1477.39 647.908 1476.13 652.9 1476.13 659.28ZM1542.66 685.599H1534.67V611.142H1542.66V685.599ZM1609.58 659.28C1609.58 663.587 1609.02 667.431 1607.9 670.812C1606.79 674.194 1605.18 677.049 1603.07 679.378C1600.97 681.707 1598.41 683.493 1595.41 684.737C1592.45 685.95 1589.08 686.556 1585.32 686.556C1581.81 686.556 1578.59 685.95 1575.65 684.737C1572.75 683.493 1570.23 681.707 1568.09 679.378C1565.99 677.049 1564.34 674.194 1563.16 670.812C1562.01 667.431 1561.44 663.587 1561.44 659.28C1561.44 653.538 1562.41 648.657 1564.36 644.638C1566.3 640.586 1569.08 637.508 1572.68 635.402C1576.32 633.265 1580.64 632.196 1585.65 632.196C1590.44 632.196 1594.62 633.265 1598.19 635.402C1601.79 637.54 1604.59 640.634 1606.56 644.686C1608.57 648.705 1609.58 653.57 1609.58 659.28ZM1569.67 659.28C1569.67 663.491 1570.23 667.144 1571.35 670.238C1572.46 673.333 1574.18 675.725 1576.51 677.416C1578.84 679.107 1581.84 679.952 1585.51 679.952C1589.15 679.952 1592.13 679.107 1594.46 677.416C1596.82 675.725 1598.56 673.333 1599.67 670.238C1600.79 667.144 1601.35 663.491 1601.35 659.28C1601.35 655.101 1600.79 651.496 1599.67 648.466C1598.56 645.403 1596.83 643.043 1594.51 641.384C1592.18 639.725 1589.16 638.896 1585.46 638.896C1580.01 638.896 1576 640.698 1573.45 644.303C1570.93 647.908 1569.67 652.9 1569.67 659.28ZM1642.85 709.142C1635.96 709.142 1630.65 707.85 1626.92 705.266C1623.19 702.714 1621.32 699.125 1621.32 694.499C1621.32 691.213 1622.36 688.406 1624.43 686.077C1626.54 683.748 1629.44 682.201 1633.14 681.436C1631.77 680.798 1630.59 679.84 1629.6 678.564C1628.64 677.288 1628.16 675.821 1628.16 674.162C1628.16 672.248 1628.69 670.573 1629.74 669.138C1630.83 667.67 1632.47 666.267 1634.67 664.927C1631.93 663.81 1629.7 661.928 1627.97 659.28C1626.28 656.601 1625.44 653.49 1625.44 649.949C1625.44 646.185 1626.22 642.979 1627.78 640.331C1629.34 637.651 1631.61 635.61 1634.58 634.206C1637.54 632.802 1641.13 632.101 1645.34 632.101C1646.27 632.101 1647.19 632.148 1648.12 632.244C1649.08 632.308 1649.98 632.42 1650.85 632.579C1651.71 632.707 1652.46 632.866 1653.09 633.058H1671.09V638.178L1661.42 639.374C1662.38 640.618 1663.18 642.118 1663.81 643.872C1664.45 645.627 1664.77 647.573 1664.77 649.71C1664.77 654.942 1663 659.105 1659.46 662.199C1655.92 665.262 1651.05 666.793 1644.86 666.793C1643.4 666.793 1641.9 666.665 1640.37 666.41C1638.8 667.271 1637.61 668.229 1636.78 669.281C1635.98 670.334 1635.58 671.546 1635.58 672.918C1635.58 673.939 1635.88 674.752 1636.49 675.358C1637.13 675.965 1638.04 676.411 1639.22 676.698C1640.4 676.953 1641.82 677.081 1643.48 677.081H1652.71C1658.42 677.081 1662.79 678.277 1665.82 680.67C1668.89 683.062 1670.42 686.556 1670.42 691.149C1670.42 696.955 1668.06 701.406 1663.34 704.5C1658.61 707.594 1651.79 709.142 1642.85 709.142ZM1643.09 702.921C1647.43 702.921 1651.02 702.474 1653.86 701.581C1656.73 700.72 1658.87 699.46 1660.27 697.801C1661.71 696.174 1662.43 694.228 1662.43 691.963C1662.43 689.857 1661.95 688.262 1660.99 687.178C1660.03 686.125 1658.63 685.423 1656.78 685.072C1654.93 684.689 1652.66 684.498 1649.98 684.498H1640.89C1638.53 684.498 1636.47 684.865 1634.72 685.599C1632.97 686.332 1631.61 687.417 1630.65 688.853C1629.73 690.288 1629.26 692.075 1629.26 694.212C1629.26 697.051 1630.46 699.204 1632.85 700.672C1635.25 702.171 1638.66 702.921 1643.09 702.921ZM1645.15 661.003C1648.95 661.003 1651.8 660.046 1653.72 658.132C1655.63 656.218 1656.59 653.426 1656.59 649.758C1656.59 645.834 1655.61 642.899 1653.67 640.953C1651.72 638.975 1648.85 637.986 1645.06 637.986C1641.42 637.986 1638.61 639.007 1636.63 641.049C1634.69 643.059 1633.71 646.009 1633.71 649.901C1633.71 653.474 1634.7 656.218 1636.68 658.132C1638.66 660.046 1641.48 661.003 1645.15 661.003ZM1694.27 633.153V685.599H1686.32V633.153H1694.27ZM1690.39 613.534C1691.7 613.534 1692.81 613.965 1693.74 614.826C1694.7 615.656 1695.18 616.964 1695.18 618.75C1695.18 620.505 1694.7 621.812 1693.74 622.674C1692.81 623.535 1691.7 623.966 1690.39 623.966C1689.02 623.966 1687.87 623.535 1686.94 622.674C1686.05 621.812 1685.61 620.505 1685.61 618.75C1685.61 616.964 1686.05 615.656 1686.94 614.826C1687.87 613.965 1689.02 613.534 1690.39 613.534ZM1736.2 632.196C1740.67 632.196 1744.5 633.185 1747.69 635.163C1750.88 637.141 1753.32 639.916 1755.01 643.489C1756.7 647.03 1757.55 651.177 1757.55 655.931V660.859H1721.32C1721.42 667.016 1722.95 671.706 1725.92 674.928C1728.88 678.15 1733.06 679.761 1738.45 679.761C1741.77 679.761 1744.7 679.458 1747.26 678.852C1749.81 678.245 1752.46 677.352 1755.2 676.172V683.158C1752.55 684.339 1749.92 685.2 1747.3 685.742C1744.72 686.285 1741.66 686.556 1738.12 686.556C1733.08 686.556 1728.67 685.535 1724.91 683.493C1721.18 681.42 1718.27 678.389 1716.2 674.401C1714.13 670.414 1713.09 665.533 1713.09 659.759C1713.09 654.112 1714.03 649.231 1715.91 645.116C1717.83 640.969 1720.51 637.779 1723.95 635.546C1727.43 633.313 1731.51 632.196 1736.2 632.196ZM1736.11 638.704C1731.86 638.704 1728.48 640.092 1725.96 642.867C1723.44 645.643 1721.94 649.519 1721.47 654.495H1749.22C1749.19 651.369 1748.69 648.625 1747.74 646.265C1746.81 643.872 1745.39 642.022 1743.48 640.714C1741.56 639.374 1739.11 638.704 1736.11 638.704ZM1831.13 632.196C1837.35 632.196 1842.06 633.728 1845.25 636.79C1848.44 639.821 1850.03 644.701 1850.03 651.433V685.599H1842.18V651.959C1842.18 647.589 1841.18 644.319 1839.17 642.149C1837.19 639.98 1834.15 638.896 1830.03 638.896C1824.22 638.896 1820.14 640.538 1817.78 643.824C1815.42 647.11 1814.24 651.879 1814.24 658.132V685.599H1806.3V633.153H1812.71L1813.9 640.714H1814.34C1815.45 638.864 1816.87 637.316 1818.59 636.072C1820.32 634.796 1822.25 633.839 1824.38 633.201C1826.52 632.531 1828.77 632.196 1831.13 632.196ZM1914.6 633.153V685.599H1908.1L1906.95 678.229H1906.52C1905.43 680.048 1904.03 681.579 1902.31 682.823C1900.58 684.067 1898.64 684.993 1896.47 685.599C1894.33 686.237 1892.05 686.556 1889.63 686.556C1885.48 686.556 1882 685.886 1879.19 684.546C1876.39 683.206 1874.26 681.132 1872.83 678.325C1871.43 675.518 1870.72 671.913 1870.72 667.511V633.153H1878.76V666.937C1878.76 671.307 1879.75 674.577 1881.73 676.746C1883.71 678.883 1886.72 679.952 1890.77 679.952C1894.67 679.952 1897.76 679.218 1900.06 677.751C1902.39 676.284 1904.06 674.13 1905.08 671.291C1906.1 668.42 1906.61 664.911 1906.61 660.764V633.153H1914.6ZM1993.24 632.196C1999.02 632.196 2003.37 633.712 2006.31 636.742C2009.24 639.741 2010.71 644.574 2010.71 651.241V685.599H2002.86V651.624C2002.86 647.381 2001.94 644.207 2000.09 642.102C1998.27 639.964 1995.56 638.896 1991.95 638.896C1986.88 638.896 1983.19 640.363 1980.9 643.298C1978.6 646.233 1977.45 650.555 1977.45 656.266V685.599H1969.56V651.624C1969.56 648.785 1969.14 646.424 1968.31 644.542C1967.51 642.66 1966.3 641.256 1964.68 640.331C1963.08 639.374 1961.05 638.896 1958.6 638.896C1955.12 638.896 1952.33 639.613 1950.22 641.049C1948.12 642.484 1946.59 644.622 1945.63 647.461C1944.71 650.268 1944.24 653.729 1944.24 657.845V685.599H1936.3V633.153H1942.71L1943.91 640.57H1944.34C1945.39 638.752 1946.72 637.221 1948.31 635.977C1949.91 634.732 1951.69 633.791 1953.67 633.153C1955.65 632.515 1957.75 632.196 1959.99 632.196C1963.97 632.196 1967.31 632.946 1969.99 634.445C1972.7 635.913 1974.66 638.162 1975.87 641.192H1976.3C1978.03 638.162 1980.39 635.913 1983.39 634.445C1986.38 632.946 1989.67 632.196 1993.24 632.196ZM2052.12 632.196C2056.59 632.196 2060.41 633.185 2063.6 635.163C2066.79 637.141 2069.23 639.916 2070.93 643.489C2072.62 647.03 2073.46 651.177 2073.46 655.931V660.859H2037.24C2037.33 667.016 2038.86 671.706 2041.83 674.928C2044.8 678.15 2048.98 679.761 2054.37 679.761C2057.69 679.761 2060.62 679.458 2063.17 678.852C2065.73 678.245 2068.37 677.352 2071.12 676.172V683.158C2068.47 684.339 2065.84 685.2 2063.22 685.742C2060.64 686.285 2057.57 686.556 2054.03 686.556C2048.99 686.556 2044.59 685.535 2040.83 683.493C2037.09 681.42 2034.19 678.389 2032.12 674.401C2030.04 670.414 2029.01 665.533 2029.01 659.759C2029.01 654.112 2029.95 649.231 2031.83 645.116C2033.74 640.969 2036.42 637.779 2039.87 635.546C2043.35 633.313 2047.43 632.196 2052.12 632.196ZM2052.02 638.704C2047.78 638.704 2044.4 640.092 2041.88 642.867C2039.36 645.643 2037.86 649.519 2037.38 654.495H2065.14C2065.1 651.369 2064.61 648.625 2063.65 646.265C2062.73 643.872 2061.31 642.022 2059.39 640.714C2057.48 639.374 2055.02 638.704 2052.02 638.704ZM2065.28 610.52V611.477C2064.64 612.402 2063.76 613.518 2062.65 614.826C2061.56 616.102 2060.35 617.458 2059.01 618.894C2057.67 620.297 2056.31 621.637 2054.94 622.913C2053.6 624.189 2052.36 625.29 2051.21 626.215H2045.9V625.066C2046.92 623.854 2048.04 622.403 2049.25 620.712C2050.46 618.989 2051.64 617.235 2052.79 615.448C2053.94 613.63 2054.89 611.987 2055.66 610.52H2065.28ZM2115.69 632.196C2116.74 632.196 2117.84 632.26 2118.99 632.388C2120.14 632.483 2121.16 632.627 2122.05 632.818L2121.04 640.188C2120.18 639.964 2119.23 639.789 2118.17 639.661C2117.12 639.534 2116.13 639.47 2115.21 639.47C2113.1 639.47 2111.11 639.9 2109.23 640.762C2107.38 641.591 2105.75 642.803 2104.34 644.398C2102.94 645.962 2101.84 647.86 2101.04 650.093C2100.25 652.294 2099.85 654.75 2099.85 657.462V685.599H2091.86V633.153H2098.46L2099.32 642.819H2099.66C2100.74 640.873 2102.05 639.103 2103.58 637.508C2105.11 635.881 2106.88 634.589 2108.89 633.632C2110.93 632.675 2113.2 632.196 2115.69 632.196ZM2144.8 633.153V685.599H2136.85V633.153H2144.8ZM2140.92 613.534C2142.23 613.534 2143.35 613.965 2144.27 614.826C2145.23 615.656 2145.71 616.964 2145.71 618.75C2145.71 620.505 2145.23 621.812 2144.27 622.674C2143.35 623.535 2142.23 623.966 2140.92 623.966C2139.55 623.966 2138.4 623.535 2137.48 622.674C2136.58 621.812 2136.14 620.505 2136.14 618.75C2136.14 616.964 2136.58 615.656 2137.48 614.826C2138.4 613.965 2139.55 613.534 2140.92 613.534ZM2201.71 709.046V686.556C2201.71 685.312 2201.74 683.876 2201.81 682.249C2201.87 680.622 2201.98 679.218 2202.14 678.038H2201.62C2200.15 680.463 2198.06 682.488 2195.35 684.115C2192.64 685.742 2189.14 686.556 2184.87 686.556C2178.46 686.556 2173.31 684.291 2169.41 679.761C2165.52 675.231 2163.58 668.468 2163.58 659.472C2163.58 653.57 2164.47 648.593 2166.25 644.542C2168.04 640.491 2170.56 637.428 2173.82 635.354C2177.1 633.249 2180.93 632.196 2185.3 632.196C2189.48 632.196 2192.89 633.026 2195.54 634.685C2198.19 636.312 2200.26 638.305 2201.76 640.666H2202.14L2203.34 633.153H2209.66V709.046H2201.71ZM2186.35 679.952C2190.05 679.952 2193.02 679.266 2195.25 677.895C2197.49 676.491 2199.11 674.385 2200.13 671.578C2201.19 668.771 2201.74 665.278 2201.81 661.099V659.424C2201.81 652.661 2200.66 647.541 2198.36 644.063C2196.07 640.554 2192.06 638.8 2186.35 638.8C2181.44 638.8 2177.79 640.682 2175.39 644.446C2173 648.179 2171.81 653.251 2171.81 659.663C2171.81 666.075 2173 671.068 2175.39 674.641C2177.79 678.182 2181.44 679.952 2186.35 679.952ZM2274.75 633.153V685.599H2268.25L2267.1 678.229H2266.67C2265.58 680.048 2264.18 681.579 2262.46 682.823C2260.73 684.067 2258.79 684.993 2256.62 685.599C2254.48 686.237 2252.2 686.556 2249.78 686.556C2245.63 686.556 2242.15 685.886 2239.34 684.546C2236.54 683.206 2234.41 681.132 2232.98 678.325C2231.58 675.518 2230.87 671.913 2230.87 667.511V633.153H2238.91V666.937C2238.91 671.307 2239.9 674.577 2241.88 676.746C2243.86 678.883 2246.87 679.952 2250.92 679.952C2254.82 679.952 2257.91 679.218 2260.21 677.751C2262.54 676.284 2264.21 674.13 2265.23 671.291C2266.25 668.42 2266.76 664.911 2266.76 660.764V633.153H2274.75ZM2316.64 632.196C2321.11 632.196 2324.94 633.185 2328.13 635.163C2331.32 637.141 2333.76 639.916 2335.45 643.489C2337.14 647.03 2337.98 651.177 2337.98 655.931V660.859H2301.76C2301.86 667.016 2303.39 671.706 2306.35 674.928C2309.32 678.15 2313.5 679.761 2318.89 679.761C2322.21 679.761 2325.14 679.458 2327.7 678.852C2330.25 678.245 2332.9 677.352 2335.64 676.172V683.158C2332.99 684.339 2330.36 685.2 2327.74 685.742C2325.16 686.285 2322.1 686.556 2318.56 686.556C2313.52 686.556 2309.11 685.535 2305.35 683.493C2301.62 681.42 2298.71 678.389 2296.64 674.401C2294.57 670.414 2293.53 665.533 2293.53 659.759C2293.53 654.112 2294.47 649.231 2296.35 645.116C2298.27 640.969 2300.95 637.779 2304.39 635.546C2307.87 633.313 2311.95 632.196 2316.64 632.196ZM2316.55 638.704C2312.3 638.704 2308.92 640.092 2306.4 642.867C2303.88 645.643 2302.38 649.519 2301.9 654.495H2329.66C2329.63 651.369 2329.13 648.625 2328.18 646.265C2327.25 643.872 2325.83 642.022 2323.92 640.714C2322 639.374 2319.55 638.704 2316.55 638.704ZM2390.31 671.243C2390.31 674.593 2389.46 677.416 2387.77 679.713C2386.11 681.978 2383.72 683.685 2380.59 684.833C2377.5 685.981 2373.8 686.556 2369.49 686.556C2365.82 686.556 2362.65 686.269 2359.97 685.694C2357.29 685.12 2354.94 684.307 2352.93 683.254V675.933C2355.07 676.985 2357.62 677.942 2360.59 678.804C2363.56 679.665 2366.59 680.096 2369.68 680.096C2374.21 680.096 2377.5 679.362 2379.54 677.895C2381.58 676.427 2382.6 674.433 2382.6 671.913C2382.6 670.478 2382.19 669.217 2381.36 668.133C2380.56 667.016 2379.2 665.948 2377.29 664.927C2375.38 663.874 2372.73 662.726 2369.35 661.481C2366 660.205 2363.09 658.945 2360.64 657.701C2358.21 656.425 2356.33 654.878 2354.99 653.06C2353.68 651.241 2353.03 648.881 2353.03 645.978C2353.03 641.543 2354.82 638.146 2358.39 635.785C2361.99 633.393 2366.71 632.196 2372.55 632.196C2375.71 632.196 2378.66 632.515 2381.41 633.153C2384.18 633.759 2386.76 634.589 2389.16 635.642L2386.48 642.006C2384.31 641.081 2382 640.299 2379.54 639.661C2377.08 639.023 2374.58 638.704 2372.03 638.704C2368.36 638.704 2365.53 639.31 2363.56 640.522C2361.61 641.735 2360.64 643.394 2360.64 645.499C2360.64 647.126 2361.08 648.466 2361.98 649.519C2362.9 650.571 2364.37 651.56 2366.38 652.485C2368.39 653.41 2371.04 654.495 2374.32 655.739C2377.61 656.951 2380.45 658.212 2382.84 659.52C2385.23 660.796 2387.07 662.359 2388.34 664.209C2389.65 666.027 2390.31 668.372 2390.31 671.243Z" />
</svg>
