<svg width="574" height="575" viewBox="0 0 574 575" fill="none" xmlns="http://www.w3.org/2000/svg">
<g clip-path="url(#clip0_4_13)">
<path fill-rule="evenodd" clip-rule="evenodd" d="M252.66 37.389C181.693 47.0709 118.881 86.639 79.104 144.26L166.234 283.335L252.66 37.389ZM214.832 190.282L460.86 104.559C422.466 68.0054 372.284 43.2002 315.554 36.7322C299.869 34.9439 284.356 34.6341 269.155 35.6919L214.832 190.282ZM536.393 325.98C525.223 398.691 483.729 459.823 426.378 497.87L397.496 238.448L536.393 325.98ZM258.376 538.239C313.883 544.568 367.233 532.381 412.256 506.587L394.07 343.234L209.184 527.631C224.896 532.701 241.341 536.297 258.376 538.239ZM193.572 522.016C127.037 495.567 75.4425 442.018 50.6814 376.321L310.008 405.888L193.572 522.016ZM208.612 379.23L45.347 360.616C35.652 328.641 32.1856 294.205 36.2112 258.897C40.4063 222.102 52.3153 188.062 70.1406 158.206L208.612 379.23ZM317.591 170.363L472.497 116.388C519.064 166.928 544.846 236.103 538.382 309.503L317.591 170.363Z" fill="black"/>
</g>
<defs>
<clipPath id="clip0_4_13">
<rect width="574" height="574" fill="white" transform="translate(0 0.450317)"/>
</clipPath>
</defs>
</svg>
