<?xml version="1.0" encoding="utf-8"?>
<!-- Generator: Adobe Illustrator 23.0.1, SVG Export Plug-In . SVG Version: 6.00 Build 0)  -->
<svg version="1.1" id="Calque_1" xmlns="http://www.w3.org/2000/svg" xmlns:xlink="http://www.w3.org/1999/xlink" x="0px" y="0px"
	 viewBox="0 0 235.626 70.826" style="enable-background:new 0 0 235.626 70.826;" xml:space="preserve">
<style type="text/css">
	.st0{fill-rule:evenodd;clip-rule:evenodd;fill:none;}
	.st1{fill:#FFFFFF;}
	.st2{fill-rule:evenodd;clip-rule:evenodd;fill:#FFFFFF;}
</style>
<rect class="st0" width="235.928" height="71.218"/>
<g>
	<g>
		<path class="st1" d="M178.567,29.911c-1.266,0.4-1.279-0.733-1.279-0.733c1.123,0.198,1.234-0.749,1.234-0.749h-2.244V27.37h1.064
			c0,0-0.181-1.412-1.225-1.412c-0.965,0-1.097,1.068-0.921,1.511c-0.483,0.082-1.191-0.753-1.191-1.736
			c0-1.252,0.994-1.921,1.871-1.921c1.416,0,2.476,1.635,2.476,3.559h0.434c0,0,0.093-0.924-0.101-1.771
			c-0.304-1.331-0.965-2.117-0.98-3.02c-0.025-1.569,0.92-1.82,1.676-3.189c0.755,1.369,1.7,1.62,1.674,3.189
			c-0.014,0.902-0.676,1.689-0.979,3.02c-0.193,0.848-0.102,1.771-0.102,1.771h0.434c0-1.924,1.06-3.559,2.477-3.559
			c0.877,0,1.869,0.669,1.869,1.921c0,0.983-0.707,1.818-1.19,1.736c0.176-0.442,0.044-1.511-0.921-1.511
			c-1.044,0-1.225,1.412-1.225,1.412h1.064v1.059h-2.245c0,0,0.111,0.947,1.234,0.749c0,0-0.013,1.134-1.28,0.733
			c0,0-0.05,1.012-0.811,1.378C178.618,30.923,178.567,29.911,178.567,29.911z M189.457,19.169h-20.154v12.352h20.154V19.169z"/>
		<path class="st1" d="M204.604,29.911c-1.268,0.4-1.279-0.733-1.279-0.733c1.123,0.198,1.234-0.749,1.234-0.749h-2.244V27.37h1.063
			c0,0-0.18-1.412-1.225-1.412c-0.965,0-1.097,1.068-0.92,1.511c-0.483,0.082-1.191-0.753-1.191-1.736
			c0-1.252,0.994-1.921,1.87-1.921c1.417,0,2.476,1.635,2.476,3.559h0.434c0,0,0.093-0.924-0.101-1.771
			c-0.304-1.331-0.965-2.117-0.979-3.02c-0.025-1.569,0.92-1.82,1.674-3.189c0.756,1.369,1.701,1.62,1.676,3.189
			c-0.016,0.902-0.676,1.689-0.98,3.02c-0.193,0.848-0.1,1.771-0.1,1.771h0.433c0-1.924,1.059-3.559,2.477-3.559
			c0.876,0,1.87,0.669,1.87,1.921c0,0.983-0.708,1.818-1.191,1.736c0.176-0.442,0.045-1.511-0.92-1.511
			c-1.045,0-1.225,1.412-1.225,1.412h1.063v1.059h-2.244c0,0,0.111,0.947,1.234,0.749c0,0-0.013,1.134-1.279,0.733
			c0,0-0.051,1.012-0.813,1.378C204.655,30.923,204.604,29.911,204.604,29.911z M215.493,19.169h-20.154v12.352h20.154V19.169z"/>
		<path class="st1" d="M178.567,48.169c-1.266,0.4-1.279-0.734-1.279-0.734c1.123,0.199,1.234-0.748,1.234-0.748h-2.244v-1.059
			h1.064c0,0-0.181-1.412-1.225-1.412c-0.965,0-1.097,1.068-0.921,1.511c-0.483,0.081-1.191-0.754-1.191-1.737
			c0-1.251,0.994-1.92,1.871-1.92c1.416,0,2.476,1.635,2.476,3.559h0.434c0,0,0.093-0.924-0.101-1.771
			c-0.304-1.331-0.965-2.117-0.98-3.02c-0.025-1.57,0.92-1.822,1.676-3.189c0.755,1.367,1.7,1.619,1.674,3.189
			c-0.014,0.902-0.676,1.688-0.979,3.02c-0.193,0.848-0.102,1.771-0.102,1.771h0.434c0-1.924,1.06-3.559,2.477-3.559
			c0.877,0,1.869,0.669,1.869,1.92c0,0.983-0.707,1.818-1.19,1.737c0.176-0.442,0.044-1.511-0.921-1.511
			c-1.044,0-1.225,1.412-1.225,1.412h1.064v1.059h-2.245c0,0,0.111,0.947,1.234,0.748c0,0-0.013,1.135-1.28,0.734
			c0,0-0.05,1.011-0.811,1.377C178.618,49.18,178.567,48.169,178.567,48.169z M189.457,37.427h-20.154v12.352h20.154V37.427z"/>
		<path class="st1" d="M204.604,48.169c-1.268,0.4-1.279-0.734-1.279-0.734c1.123,0.199,1.234-0.748,1.234-0.748h-2.244v-1.059
			h1.063c0,0-0.18-1.412-1.225-1.412c-0.965,0-1.097,1.068-0.92,1.511c-0.483,0.081-1.191-0.754-1.191-1.737
			c0-1.251,0.994-1.92,1.87-1.92c1.417,0,2.476,1.635,2.476,3.559h0.434c0,0,0.093-0.924-0.101-1.771
			c-0.304-1.331-0.965-2.117-0.979-3.02c-0.025-1.57,0.92-1.822,1.674-3.189c0.756,1.367,1.701,1.619,1.676,3.189
			c-0.016,0.902-0.676,1.688-0.98,3.02c-0.193,0.848-0.1,1.771-0.1,1.771h0.433c0-1.924,1.059-3.559,2.477-3.559
			c0.876,0,1.87,0.669,1.87,1.92c0,0.983-0.708,1.818-1.191,1.737c0.176-0.442,0.045-1.511-0.92-1.511
			c-1.045,0-1.225,1.412-1.225,1.412h1.063v1.059h-2.244c0,0,0.111,0.947,1.234,0.748c0,0-0.013,1.135-1.279,0.734
			c0,0-0.051,1.011-0.813,1.377C204.655,49.18,204.604,48.169,204.604,48.169z M215.493,37.427h-20.154v12.352h20.154V37.427z"/>
	</g>
</g>
<g>
	<g>
		<g>
			<path class="st1" d="M72.923,44.929l-0.001-16.351h-0.124c-0.58,0.535-2.729,0.578-3.64,0.578h-1.58v0.133
				c1.825,1.121,1.577,2.777,1.577,4.836l0.002,6.921c0,3.458-3.398,5.886-6.137,5.886c-3.608,0-5.106-2.562-5.106-6.696V28.579
				h-0.124c-0.58,0.534-2.743,0.578-3.654,0.578h-1.567v0.133c1.825,1.121,1.577,2.777,1.577,4.837v6.896
				c0,6.313,2.738,9.312,7.63,9.312c2.905,0,5.887-1.031,7.381-3.492v2.983H74.5v-0.135C72.675,48.658,72.923,46.994,72.923,44.929z
				"/>
			<path class="st1" d="M81.209,36.185c0.499-2.808,2.573-4.591,5.355-4.591c2.988,0,4.896,1.471,5.352,4.591H81.209z
				 M96.275,38.792c0.165-5.771-3.695-10.125-9.338-10.125c-6.184,0-10.372,4.487-10.372,10.71c0,6.27,4.852,11.046,11.908,11.046
				c1.951,0,3.942-0.31,5.728-1.109l2.075-4.209h-0.126c-1.91,1.623-4.315,2.392-6.806,2.392c-4.689,0-8.216-3.202-8.299-8.704
				H96.275z"/>
			<path class="st1" d="M99.567,19.081c0.993,0,3.022-0.062,3.634-0.666h0.123v28.316c1.114,0.313,2.269,0.535,3.423,0.535
				c4.535,0,7.132-3.171,7.132-7.592c0-4.334-2.02-7.683-6.183-7.683c-1.319,0-2.35,0.357-3.464,0.983l2.227-3.812
				c0.947-0.358,1.937-0.494,2.927-0.494c4.702,0,8.7,4.082,8.7,10.202c0,7.012-4.743,11.546-12.246,11.546
				c-2.803,0-5.496-0.494-7.527-0.809V49.47c1.369-0.629,1.245-2.114,1.245-3.588V25.298c0-2.067,0.248-4.96-1.535-6.084v-0.133
				H99.567z"/>
			<path class="st1" d="M125.453,36.185c0.5-2.808,2.573-4.591,5.355-4.591c2.987,0,4.896,1.471,5.353,4.591H125.453z
				 M140.517,38.792c0.168-5.771-3.692-10.125-9.336-10.125c-6.183,0-10.373,4.487-10.373,10.71c0,6.27,4.854,11.046,11.908,11.046
				c1.951,0,3.944-0.31,5.727-1.109l2.075-4.209h-0.123c-1.909,1.623-4.317,2.392-6.807,2.392c-4.689,0-8.216-3.202-8.3-8.704
				H140.517z"/>
			<path class="st1" d="M159.078,33.797h-0.123c-1.204-1.484-3.197-2.202-5.065-2.202c-4.025,0-6.928,3.056-6.928,7.323
				c0,5.165,4.024,8.579,8.63,8.579c2.116,0,4.441-0.899,6.059-2.201h0.125l-2.159,4.24c-1.743,0.711-3.651,0.888-5.479,0.888
				c-6.389,0-11.384-4.499-11.384-10.338c0-7.727,5.576-11.418,11.841-11.418c1.495,0,3.03,0.176,4.482,0.531V33.797z"/>
			<path class="st2" d="M91.097,24.961c0-2.088,0-4.493,0-4.493c-2.72,1.219-5.244,3.499-6.931,5.717v1.75
				C88.203,25.214,91.097,25.088,91.097,24.961z"/>
			<path class="st1" d="M35.489,47.334c-6.266,0-10.625-7.07-10.625-13.076c0-0.061,0-0.616,0.001-0.676
				c0.078-5.819,3.845-11.276,10.417-11.276c6.916,0,10.483,6.543,10.541,12.743c0,0.05,0,0.596,0,0.646
				C45.824,42.301,41.715,47.334,35.489,47.334z M56.969,54.206c-4.627,0.757-9.075-0.701-13.802-6.109
				c4.566-2.292,7.389-7.998,7.389-13.301c0-0.054-0.001-0.604-0.001-0.659c-0.082-9.074-6.898-15.065-15.025-15.065
				c-8.142,0-15.337,6.236-15.398,15.381c0,0.041-0.001,0.573-0.001,0.612c0,8.897,6.6,15.503,14.694,15.503
				c1.163,0,2.282-0.18,3.403-0.45c5.301,4.965,10.025,7.079,14.108,6.587c1.937-0.233,3.982-1.002,5.211-2.599L56.969,54.206z"/>
		</g>
	</g>
</g>
</svg>
