<?xml version="1.0" encoding="utf-8"?>
<!-- Generator: Adobe Illustrator 23.0.1, SVG Export Plug-In . SVG Version: 6.00 Build 0)  -->
<svg version="1.1" id="Calque_1" xmlns="http://www.w3.org/2000/svg" xmlns:xlink="http://www.w3.org/1999/xlink" x="0px" y="0px"
	 viewBox="0 0 235.626 70.826" style="enable-background:new 0 0 235.626 70.826;" xml:space="preserve">
<style type="text/css">
	.st0{fill-rule:evenodd;clip-rule:evenodd;fill:#1D1D1B;}
	.st1{fill-rule:evenodd;clip-rule:evenodd;}
	.st2{fill-rule:evenodd;clip-rule:evenodd;fill:#FFFFFF;}
	.st3{fill-rule:evenodd;clip-rule:evenodd;fill:none;}
</style>
<g>
	<g>
		<g>
			<path d="M73.038,46.121L73.038,29.77h-0.124c-0.58,0.535-2.729,0.578-3.64,0.578h-1.58v0.133
				c1.825,1.121,1.577,2.777,1.577,4.836l0.002,6.921c0,3.458-3.398,5.886-6.137,5.886c-3.608,0-5.106-2.562-5.106-6.697V29.771
				h-0.124c-0.581,0.534-2.743,0.578-3.654,0.578h-1.567v0.133c1.826,1.121,1.577,2.777,1.577,4.837v6.896
				c0,6.313,2.738,9.312,7.63,9.312c2.905,0,5.887-1.031,7.381-3.492v2.983h5.344v-0.135C72.791,49.85,73.038,48.187,73.038,46.121z
				"/>
			<path d="M81.325,37.378c0.499-2.808,2.573-4.591,5.355-4.591c2.988,0,4.896,1.471,5.352,4.591H81.325z M96.391,39.984
				c0.165-5.771-3.695-10.125-9.338-10.125c-6.184,0-10.372,4.487-10.372,10.71c0,6.27,4.852,11.046,11.908,11.046
				c1.951,0,3.942-0.31,5.727-1.109l2.075-4.209h-0.126c-1.909,1.623-4.315,2.391-6.806,2.391c-4.689,0-8.216-3.202-8.299-8.704
				H96.391z"/>
			<path d="M99.683,20.273c0.993,0,3.022-0.062,3.634-0.666h0.124v28.316c1.114,0.312,2.269,0.535,3.423,0.535
				c4.535,0,7.132-3.171,7.132-7.592c0-4.334-2.02-7.683-6.183-7.683c-1.319,0-2.35,0.357-3.464,0.983l2.227-3.812
				c0.947-0.358,1.937-0.494,2.927-0.494c4.702,0,8.7,4.082,8.7,10.202c0,7.012-4.743,11.546-12.246,11.546
				c-2.804,0-5.495-0.494-7.527-0.809v-0.137c1.369-0.629,1.245-2.114,1.245-3.588V26.49c0-2.067,0.248-4.96-1.535-6.084v-0.133
				H99.683z"/>
			<path d="M125.569,37.378c0.5-2.808,2.573-4.591,5.355-4.591c2.987,0,4.896,1.471,5.353,4.591H125.569z M140.633,39.984
				c0.168-5.771-3.692-10.125-9.336-10.125c-6.183,0-10.373,4.487-10.373,10.71c0,6.27,4.854,11.046,11.908,11.046
				c1.951,0,3.944-0.31,5.727-1.109l2.075-4.209h-0.123c-1.909,1.623-4.317,2.391-6.807,2.391c-4.69,0-8.216-3.202-8.3-8.704
				H140.633z"/>
			<path d="M159.193,34.989h-0.123c-1.204-1.484-3.197-2.202-5.065-2.202c-4.025,0-6.928,3.056-6.928,7.323
				c0,5.165,4.024,8.579,8.63,8.579c2.116,0,4.441-0.899,6.059-2.201h0.125l-2.158,4.24c-1.743,0.711-3.651,0.888-5.479,0.888
				c-6.389,0-11.384-4.499-11.384-10.338c0-7.726,5.576-11.418,11.841-11.418c1.495,0,3.03,0.177,4.482,0.532V34.989z"/>
			<path class="st0" d="M91.213,26.154c0-2.088,0-4.493,0-4.493c-2.72,1.219-5.244,3.499-6.931,5.717v1.75
				C88.318,26.407,91.213,26.28,91.213,26.154z"/>
			<path d="M35.605,48.526c-6.266,0-10.625-7.07-10.625-13.076c0-0.061,0-0.616,0.001-0.676c0.078-5.818,3.844-11.276,10.417-11.276
				c6.916,0,10.483,6.543,10.541,12.743c0,0.05,0,0.596,0,0.646C45.939,43.493,41.831,48.526,35.605,48.526z M57.085,55.398
				c-4.627,0.757-9.075-0.701-13.802-6.109c4.566-2.292,7.389-7.998,7.389-13.301c0-0.054-0.001-0.604-0.001-0.659
				c-0.082-9.074-6.898-15.065-15.024-15.065c-8.142,0-15.337,6.236-15.398,15.382c0,0.041-0.001,0.573-0.001,0.612
				c0,8.897,6.601,15.503,14.694,15.503c1.163,0,2.282-0.18,3.403-0.45c5.301,4.965,10.025,7.079,14.108,6.587
				c1.937-0.233,3.982-1.002,5.211-2.599L57.085,55.398z"/>
		</g>
	</g>
	<g>
		<g>
			<g>
				<rect x="169.312" y="20.278" class="st1" width="20.242" height="12.407"/>
			</g>
		</g>
		<path class="st2" d="M179.434,20.928c-0.147,0.272-0.478,0.662-1.033,1.363c-0.647,0.804-0.534,1.881-0.227,2.515
			c0.351,0.734,0.553,1.342,0.714,1.92c0.222,0.84,0.075,1.962,0.09,1.86h-0.559c0-1.369-0.429-2.657-1.46-3.229
			c-1.468-0.813-2.917,0.596-2.457,2.061c0.244,0.769,0.676,1.027,0.798,1.027c0,0-0.202-0.847,0.41-1.278
			c0.576-0.408,1.287-0.162,1.617,0.325c0.312,0.46,0.361,1.094,0.361,1.094h-1.053v0.78l2.121-0.002c0,0-0.058,1.103-1.218,0.996
			c0,0,0.144,0.867,1.218,0.414c0,0-0.058,0.907,0.68,1.364l0,0l0,0c0.736-0.457,0.683-1.364,0.683-1.364
			c1.076,0.452,1.217-0.414,1.217-0.414c-1.163,0.108-1.217-0.996-1.217-0.996l2.121,0.002v-0.78h-1.057
			c0,0,0.051-0.633,0.362-1.094c0.329-0.487,1.042-0.733,1.615-0.325c0.612,0.431,0.413,1.278,0.413,1.278
			c0.123,0,0.553-0.258,0.798-1.027c0.46-1.465-0.991-2.874-2.455-2.061c-1.036,0.572-1.459,1.86-1.459,3.229h-0.563
			c0.014,0.102-0.133-1.02,0.091-1.86c0.158-0.578,0.362-1.186,0.713-1.92c0.307-0.635,0.421-1.711-0.226-2.515
			C179.917,21.59,179.583,21.2,179.434,20.928z"/>
		<g>
			<g>
				<rect x="195.454" y="20.278" class="st1" width="20.248" height="12.407"/>
			</g>
		</g>
		<path class="st2" d="M205.577,20.928c-0.151,0.272-0.481,0.662-1.041,1.363c-0.647,0.804-0.532,1.881-0.223,2.515
			c0.352,0.734,0.554,1.342,0.714,1.92c0.22,0.84,0.076,1.962,0.091,1.86h-0.563c0-1.369-0.425-2.657-1.46-3.229
			c-1.466-0.813-2.913,0.596-2.453,2.061c0.241,0.769,0.672,1.027,0.796,1.027c0,0-0.2-0.847,0.413-1.278
			c0.572-0.408,1.284-0.162,1.613,0.325c0.314,0.46,0.364,1.094,0.364,1.094h-1.054v0.78l2.117-0.002c0,0-0.057,1.103-1.216,0.996
			c0,0,0.142,0.867,1.216,0.414c0,0-0.057,0.907,0.686,1.364l0,0l0,0c0.733-0.457,0.676-1.364,0.676-1.364
			c1.077,0.452,1.221-0.414,1.221-0.414c-1.165,0.108-1.221-0.996-1.221-0.996l2.124,0.002v-0.78h-1.061
			c0,0,0.055-0.633,0.364-1.094c0.332-0.487,1.043-0.733,1.62-0.325c0.607,0.431,0.415,1.278,0.415,1.278
			c0.118,0,0.548-0.258,0.786-1.027c0.461-1.465-0.988-2.874-2.452-2.061c-1.031,0.572-1.457,1.86-1.457,3.229h-0.559
			c0.015,0.102-0.135-1.02,0.09-1.86c0.154-0.578,0.361-1.186,0.711-1.92c0.305-0.635,0.418-1.711-0.227-2.515
			C206.055,21.59,205.718,21.2,205.577,20.928z"/>
	</g>
	<g>
		<g>
			<g>
				<rect x="169.312" y="38.595" class="st1" width="20.242" height="12.404"/>
			</g>
		</g>
		<path class="st2" d="M179.434,39.242c-0.147,0.273-0.478,0.663-1.033,1.362c-0.647,0.804-0.534,1.879-0.227,2.515
			c0.351,0.735,0.553,1.341,0.714,1.924c0.222,0.836,0.075,1.958,0.09,1.856h-0.559c0-1.366-0.429-2.658-1.46-3.23
			c-1.468-0.814-2.917,0.599-2.457,2.061c0.244,0.768,0.676,1.029,0.798,1.029c0,0-0.202-0.846,0.41-1.279
			c0.576-0.405,1.287-0.159,1.617,0.32c0.312,0.465,0.361,1.098,0.361,1.098h-1.053v0.779h2.121c0,0-0.058,1.1-1.218,0.996
			c0,0,0.144,0.865,1.218,0.409c0,0-0.058,0.912,0.68,1.369l0,0l0,0c0.736-0.457,0.683-1.369,0.683-1.369
			c1.076,0.456,1.217-0.409,1.217-0.409c-1.163,0.104-1.217-0.996-1.217-0.996h2.121v-0.779h-1.057c0,0,0.051-0.633,0.362-1.098
			c0.329-0.479,1.042-0.725,1.615-0.32c0.612,0.433,0.413,1.279,0.413,1.279c0.123,0,0.553-0.261,0.798-1.029
			c0.46-1.463-0.991-2.876-2.455-2.061c-1.036,0.573-1.459,1.864-1.459,3.23h-0.563c0.014,0.102-0.133-1.02,0.091-1.856
			c0.158-0.583,0.362-1.189,0.713-1.924c0.307-0.636,0.421-1.711-0.226-2.515C179.917,39.906,179.583,39.516,179.434,39.242z"/>
		<g>
			<g>
				<rect x="195.454" y="38.595" class="st1" width="20.248" height="12.404"/>
			</g>
		</g>
		<path class="st2" d="M205.577,39.242c-0.151,0.273-0.481,0.663-1.041,1.362c-0.647,0.804-0.532,1.879-0.223,2.515
			c0.352,0.735,0.554,1.341,0.714,1.924c0.22,0.836,0.076,1.958,0.091,1.856h-0.563c0-1.366-0.425-2.658-1.46-3.23
			c-1.466-0.814-2.913,0.599-2.453,2.061c0.241,0.768,0.672,1.029,0.796,1.029c0,0-0.2-0.846,0.413-1.279
			c0.572-0.405,1.284-0.159,1.613,0.32c0.314,0.465,0.364,1.098,0.364,1.098h-1.054v0.779h2.117c0,0-0.057,1.1-1.216,0.996
			c0,0,0.142,0.865,1.216,0.409c0,0-0.057,0.912,0.686,1.369l0,0l0,0c0.733-0.457,0.676-1.369,0.676-1.369
			c1.077,0.456,1.221-0.409,1.221-0.409c-1.165,0.104-1.221-0.996-1.221-0.996h2.124v-0.779h-1.061c0,0,0.055-0.633,0.364-1.098
			c0.332-0.479,1.043-0.725,1.62-0.32c0.607,0.433,0.415,1.279,0.415,1.279c0.118,0,0.548-0.261,0.786-1.029
			c0.461-1.463-0.988-2.876-2.452-2.061c-1.031,0.573-1.457,1.864-1.457,3.23h-0.559c0.015,0.102-0.135-1.02,0.09-1.856
			c0.154-0.583,0.361-1.189,0.711-1.924c0.305-0.636,0.418-1.711-0.227-2.515C206.055,39.906,205.718,39.516,205.577,39.242z"/>
	</g>
</g>
<rect class="st3" width="235.928" height="71.218"/>
</svg>
