<svg width="2166" height="604" viewBox="0 0 2166 604" fill="none" xmlns="http://www.w3.org/2000/svg">
<rect width="2166" height="604"/>
<path fill-rule="evenodd" clip-rule="evenodd" d="M252.66 54.3438C181.693 64.0258 118.881 103.594 79.104 161.215L166.234 300.29L252.66 54.3438ZM214.832 207.237L460.86 121.514C422.466 84.9603 372.284 60.155 315.554 53.6871C299.869 51.8988 284.356 51.589 269.155 52.6468L214.832 207.237ZM536.393 342.935C525.223 415.646 483.729 476.778 426.378 514.824L397.496 255.403L536.393 342.935ZM258.376 555.194C313.883 561.522 367.233 549.335 412.256 523.541L394.07 360.189L209.184 544.586C224.896 549.656 241.341 553.252 258.376 555.194ZM193.572 538.971C127.037 512.522 75.4425 458.973 50.6814 393.276L310.008 422.843L193.572 538.971ZM208.612 396.185L45.347 377.571C35.652 345.596 32.1856 311.16 36.2112 275.851C40.4063 239.057 52.3153 205.016 70.1406 175.161L208.612 396.185ZM317.591 187.317L472.497 133.343C519.064 183.883 544.846 253.058 538.382 326.458L317.591 187.317Z" fill="#292E38"/>
<path d="M754.295 168.855C754.295 180.958 752.827 191.986 749.891 201.941C747.026 211.823 742.514 220.346 736.355 227.507C730.197 234.669 722.283 240.183 712.615 244.05C702.947 247.846 691.382 249.743 677.918 249.743C664.741 249.743 653.318 247.846 643.65 244.05C634.054 240.183 626.141 234.704 619.91 227.615C613.68 220.453 609.061 211.895 606.053 201.941C603.045 191.986 601.541 180.886 601.541 168.64C601.541 152.312 604.227 138.132 609.598 126.101C615.04 113.998 623.419 104.652 634.734 98.0637C646.049 91.4036 660.516 88.0735 678.133 88.0735C696.036 88.0735 710.574 91.4036 721.746 98.0637C732.99 104.724 741.225 114.105 746.453 126.208C751.681 138.311 754.295 152.527 754.295 168.855ZM646.229 168.855C646.229 178.308 647.303 186.436 649.451 193.24C651.6 200.043 655.001 205.271 659.656 208.923C664.311 212.575 670.398 214.402 677.918 214.402C685.724 214.402 691.919 212.575 696.502 208.923C701.157 205.271 704.487 200.043 706.492 193.24C708.569 186.436 709.607 178.308 709.607 168.855C709.607 154.675 707.244 143.467 702.518 135.232C697.791 126.996 689.663 122.878 678.133 122.878C670.47 122.878 664.275 124.74 659.549 128.464C654.894 132.188 651.492 137.488 649.344 144.363C647.267 151.238 646.229 159.402 646.229 168.855ZM909.562 125.886V247.595H877.873L872.609 232.448H870.139C867.632 236.531 864.445 239.861 860.578 242.439C856.783 244.945 852.557 246.771 847.902 247.917C843.247 249.135 838.413 249.743 833.4 249.743C825.451 249.743 818.254 248.204 811.809 245.124C805.435 242.045 800.35 237.211 796.555 230.622C792.831 224.034 790.969 215.547 790.969 205.163V125.886H832.971V192.38C832.971 200.258 834.081 206.273 836.301 210.427C838.592 214.509 842.316 216.55 847.473 216.55C852.772 216.55 856.854 215.118 859.719 212.253C862.655 209.389 864.696 205.163 865.842 199.577C866.988 193.991 867.561 187.188 867.561 179.167V125.886H909.562ZM981.471 247.595L935.064 125.886H978.893L999.518 197.859C999.732 198.503 1000.09 200.15 1000.59 202.8C1001.16 205.45 1001.45 207.92 1001.45 210.212H1002.2C1002.2 207.777 1002.45 205.45 1002.96 203.23C1003.46 201.01 1003.85 199.291 1004.14 198.073L1025.73 125.886H1069.45L1023.04 247.595H981.471ZM1168.54 123.738C1170.83 123.738 1173.23 123.917 1175.73 124.275C1178.24 124.561 1180.1 124.812 1181.32 125.027L1177.56 164.665C1176.2 164.307 1174.44 164.021 1172.29 163.806C1170.15 163.519 1167.14 163.376 1163.27 163.376C1160.62 163.376 1157.79 163.627 1154.79 164.128C1151.78 164.629 1148.91 165.704 1146.19 167.351C1143.54 168.926 1141.36 171.361 1139.64 174.656C1137.92 177.878 1137.06 182.247 1137.06 187.761V247.595H1095.06V125.886H1126.32L1132.87 145.329H1134.91C1137.13 141.319 1139.96 137.702 1143.4 134.48C1146.91 131.185 1150.81 128.572 1155.11 126.638C1159.48 124.704 1163.95 123.738 1168.54 123.738ZM1325.63 186.472C1325.63 196.641 1324.23 205.665 1321.44 213.542C1318.65 221.42 1314.6 228.044 1309.3 233.415C1304 238.786 1297.59 242.868 1290.07 245.661C1282.55 248.383 1274.07 249.743 1264.61 249.743C1255.8 249.743 1247.71 248.383 1240.34 245.661C1233.03 242.868 1226.66 238.786 1221.21 233.415C1215.77 228.044 1211.55 221.42 1208.54 213.542C1205.6 205.665 1204.13 196.641 1204.13 186.472C1204.13 173.008 1206.57 161.622 1211.44 152.312C1216.38 143.002 1223.4 135.912 1232.49 131.042C1241.66 126.172 1252.58 123.738 1265.26 123.738C1276.93 123.738 1287.32 126.172 1296.41 131.042C1305.51 135.912 1312.63 143.002 1317.79 152.312C1323.01 161.622 1325.63 173.008 1325.63 186.472ZM1246.78 186.472C1246.78 193.419 1247.39 199.291 1248.61 204.089C1249.82 208.816 1251.76 212.432 1254.41 214.939C1257.13 217.374 1260.67 218.591 1265.04 218.591C1269.41 218.591 1272.88 217.374 1275.46 214.939C1278.04 212.432 1279.9 208.816 1281.05 204.089C1282.27 199.291 1282.88 193.419 1282.88 186.472C1282.88 179.525 1282.27 173.725 1281.05 169.07C1279.9 164.415 1278.01 160.906 1275.36 158.542C1272.78 156.179 1269.27 154.997 1264.83 154.997C1258.45 154.997 1253.84 157.647 1250.97 162.947C1248.18 168.246 1246.78 176.088 1246.78 186.472ZM1402.91 125.886V247.595H1360.91V125.886H1402.91ZM1382.07 76.9016C1388.08 76.9016 1393.31 78.1549 1397.75 80.6614C1402.26 83.1679 1404.52 88.1451 1404.52 95.593C1404.52 102.826 1402.26 107.732 1397.75 110.31C1393.31 112.816 1388.08 114.07 1382.07 114.07C1375.91 114.07 1370.65 112.816 1366.28 110.31C1361.98 107.732 1359.83 102.826 1359.83 95.593C1359.83 88.1451 1361.98 83.1679 1366.28 80.6614C1370.65 78.1549 1375.91 76.9016 1382.07 76.9016ZM1516.71 123.738C1519 123.738 1521.4 123.917 1523.91 124.275C1526.41 124.561 1528.28 124.812 1529.49 125.027L1525.73 164.665C1524.37 164.307 1522.62 164.021 1520.47 163.806C1518.32 163.519 1515.31 163.376 1511.45 163.376C1508.8 163.376 1505.97 163.627 1502.96 164.128C1499.95 164.629 1497.09 165.704 1494.37 167.351C1491.72 168.926 1489.53 171.361 1487.81 174.656C1486.1 177.878 1485.24 182.247 1485.24 187.761V247.595H1443.23V125.886H1474.49L1481.05 145.329H1483.09C1485.31 141.319 1488.14 137.702 1491.57 134.48C1495.08 131.185 1498.99 128.572 1503.28 126.638C1507.65 124.704 1512.13 123.738 1516.71 123.738Z" fill="#292E38"/>
<path d="M671.038 386.398C664.403 386.398 659.139 384.133 655.247 379.603C651.387 375.073 649.457 368.342 649.457 359.409C649.457 350.381 651.435 343.571 655.391 338.977C659.347 334.351 664.61 332.038 671.182 332.038C673.957 332.038 676.382 332.405 678.455 333.139C680.529 333.873 682.315 334.862 683.815 336.106C685.314 337.318 686.574 338.706 687.595 340.269H688.169C688.042 339.28 687.914 337.924 687.786 336.201C687.659 334.479 687.595 333.075 687.595 331.99V310.984H695.538V385.441H689.126L687.93 377.976H687.595C686.606 379.539 685.346 380.959 683.815 382.235C682.315 383.511 680.513 384.531 678.407 385.297C676.334 386.031 673.878 386.398 671.038 386.398ZM672.282 379.794C677.897 379.794 681.869 378.199 684.198 375.009C686.526 371.819 687.691 367.082 687.691 360.797V359.362C687.691 352.694 686.574 347.574 684.341 344.001C682.14 340.428 678.12 338.642 672.282 338.642C667.402 338.642 663.749 340.524 661.324 344.288C658.9 348.021 657.688 353.125 657.688 359.601C657.688 366.045 658.884 371.021 661.277 374.531C663.701 378.04 667.37 379.794 672.282 379.794ZM723.551 315.482L724.268 316.534C723.694 318.863 722.96 321.367 722.067 324.047C721.174 326.695 720.201 329.343 719.148 331.99C718.096 334.638 717.043 337.127 715.99 339.455H710.152C710.631 337.637 711.109 335.691 711.588 333.617C712.098 331.544 712.577 329.438 713.023 327.301C713.47 325.164 713.869 323.09 714.22 321.08C714.602 319.071 714.921 317.204 715.177 315.482H723.551ZM746.778 310.984V333.235C746.778 334.511 746.746 335.803 746.682 337.111C746.618 338.387 746.507 339.567 746.347 340.652H746.873C747.958 338.801 749.33 337.254 750.989 336.01C752.679 334.734 754.594 333.777 756.731 333.139C758.868 332.469 761.133 332.134 763.526 332.134C767.737 332.134 771.246 332.804 774.053 334.144C776.892 335.484 779.014 337.557 780.417 340.365C781.853 343.172 782.571 346.809 782.571 351.275V385.441H774.723V351.801C774.723 347.431 773.718 344.161 771.708 341.991C769.731 339.822 766.684 338.738 762.569 338.738C758.677 338.738 755.567 339.487 753.238 340.987C750.941 342.454 749.282 344.623 748.261 347.494C747.272 350.365 746.778 353.875 746.778 358.022V385.441H738.834V310.984H746.778ZM811.779 332.995V385.441H803.836V332.995H811.779ZM807.903 313.376C809.211 313.376 810.328 313.807 811.253 314.668C812.21 315.498 812.689 316.806 812.689 318.592C812.689 320.347 812.21 321.655 811.253 322.516C810.328 323.377 809.211 323.808 807.903 323.808C806.532 323.808 805.383 323.377 804.458 322.516C803.565 321.655 803.118 320.347 803.118 318.592C803.118 316.806 803.565 315.498 804.458 314.668C805.383 313.807 806.532 313.376 807.903 313.376ZM867.45 371.085C867.45 374.435 866.604 377.258 864.914 379.555C863.255 381.82 860.862 383.527 857.736 384.675C854.642 385.823 850.941 386.398 846.634 386.398C842.966 386.398 839.792 386.111 837.112 385.536C834.432 384.962 832.088 384.149 830.078 383.096V375.775C832.215 376.827 834.767 377.784 837.734 378.646C840.701 379.507 843.731 379.938 846.826 379.938C851.356 379.938 854.642 379.204 856.683 377.737C858.725 376.269 859.746 374.275 859.746 371.755C859.746 370.32 859.331 369.059 858.502 367.975C857.704 366.858 856.348 365.79 854.434 364.769C852.52 363.716 849.872 362.568 846.491 361.323C843.141 360.047 840.238 358.787 837.782 357.543C835.357 356.267 833.475 354.72 832.135 352.902C830.827 351.083 830.173 348.723 830.173 345.82C830.173 341.385 831.96 337.988 835.533 335.627C839.138 333.235 843.859 332.038 849.697 332.038C852.855 332.038 855.806 332.357 858.549 332.995C861.325 333.601 863.909 334.431 866.301 335.484L863.622 341.848C861.452 340.923 859.14 340.141 856.683 339.503C854.227 338.865 851.723 338.546 849.171 338.546C845.502 338.546 842.679 339.152 840.701 340.365C838.755 341.577 837.782 343.236 837.782 345.341C837.782 346.968 838.229 348.308 839.122 349.361C840.047 350.413 841.514 351.402 843.524 352.327C845.534 353.253 848.182 354.337 851.467 355.581C854.753 356.794 857.592 358.054 859.985 359.362C862.378 360.638 864.212 362.201 865.488 364.051C866.796 365.869 867.45 368.214 867.45 371.085ZM902.066 379.89C903.374 379.89 904.713 379.778 906.085 379.555C907.457 379.332 908.573 379.06 909.435 378.741V384.914C908.51 385.329 907.218 385.68 905.559 385.967C903.932 386.254 902.337 386.398 900.774 386.398C897.998 386.398 895.478 385.919 893.213 384.962C890.948 383.973 889.13 382.314 887.758 379.986C886.418 377.657 885.748 374.435 885.748 370.32V339.216H878.283V335.34L885.796 332.23L888.954 320.841H893.74V332.995H909.1V339.216H893.74V370.08C893.74 373.366 894.489 375.823 895.989 377.449C897.52 379.076 899.545 379.89 902.066 379.89ZM970.178 359.122C970.178 363.429 969.619 367.273 968.503 370.655C967.386 374.036 965.775 376.891 963.67 379.22C961.564 381.549 959.012 383.335 956.014 384.579C953.047 385.792 949.681 386.398 945.917 386.398C942.408 386.398 939.186 385.792 936.251 384.579C933.348 383.335 930.828 381.549 928.69 379.22C926.585 376.891 924.942 374.036 923.762 370.655C922.613 367.273 922.039 363.429 922.039 359.122C922.039 353.38 923.012 348.499 924.958 344.48C926.904 340.428 929.679 337.35 933.284 335.244C936.921 333.107 941.243 332.038 946.252 332.038C951.037 332.038 955.216 333.107 958.789 335.244C962.394 337.382 965.185 340.476 967.163 344.528C969.173 348.547 970.178 353.412 970.178 359.122ZM930.269 359.122C930.269 363.333 930.828 366.986 931.944 370.08C933.061 373.175 934.783 375.567 937.112 377.258C939.441 378.949 942.44 379.794 946.108 379.794C949.745 379.794 952.728 378.949 955.056 377.258C957.417 375.567 959.156 373.175 960.272 370.08C961.389 366.986 961.947 363.333 961.947 359.122C961.947 354.943 961.389 351.338 960.272 348.308C959.156 345.245 957.433 342.885 955.104 341.226C952.776 339.567 949.761 338.738 946.06 338.738C940.605 338.738 936.602 340.54 934.05 344.145C931.529 347.75 930.269 352.742 930.269 359.122ZM996.754 332.995V385.441H988.811V332.995H996.754ZM992.878 313.376C994.186 313.376 995.303 313.807 996.228 314.668C997.185 315.498 997.664 316.806 997.664 318.592C997.664 320.347 997.185 321.655 996.228 322.516C995.303 323.377 994.186 323.808 992.878 323.808C991.507 323.808 990.358 323.377 989.433 322.516C988.54 321.655 988.093 320.347 988.093 318.592C988.093 316.806 988.54 315.498 989.433 314.668C990.358 313.807 991.507 313.376 992.878 313.376ZM1042.33 332.038C1043.38 332.038 1044.48 332.102 1045.63 332.23C1046.78 332.325 1047.8 332.469 1048.69 332.66L1047.69 340.03C1046.83 339.806 1045.87 339.631 1044.82 339.503C1043.76 339.376 1042.77 339.312 1041.85 339.312C1039.74 339.312 1037.75 339.742 1035.87 340.604C1034.02 341.433 1032.39 342.645 1030.99 344.24C1029.58 345.804 1028.48 347.702 1027.69 349.935C1026.89 352.136 1026.49 354.592 1026.49 357.304V385.441H1018.5V332.995H1025.1L1025.96 342.661H1026.3C1027.38 340.715 1028.69 338.945 1030.22 337.35C1031.75 335.723 1033.52 334.431 1035.53 333.474C1037.57 332.517 1039.84 332.038 1042.33 332.038ZM1083.69 332.038C1088.16 332.038 1091.99 333.027 1095.18 335.005C1098.37 336.983 1100.81 339.758 1102.5 343.331C1104.19 346.872 1105.03 351.019 1105.03 355.773V360.701H1068.81C1068.9 366.858 1070.44 371.548 1073.4 374.77C1076.37 377.992 1080.55 379.603 1085.94 379.603C1089.26 379.603 1092.19 379.3 1094.74 378.694C1097.3 378.087 1099.94 377.194 1102.69 376.014V383C1100.04 384.181 1097.41 385.042 1094.79 385.584C1092.21 386.127 1089.15 386.398 1085.61 386.398C1080.56 386.398 1076.16 385.377 1072.4 383.335C1068.67 381.262 1065.76 378.231 1063.69 374.243C1061.62 370.256 1060.58 365.375 1060.58 359.601C1060.58 353.954 1061.52 349.073 1063.4 344.958C1065.32 340.811 1068 337.621 1071.44 335.388C1074.92 333.155 1079 332.038 1083.69 332.038ZM1083.6 338.546C1079.35 338.546 1075.97 339.934 1073.45 342.709C1070.93 345.485 1069.43 349.361 1068.95 354.337H1096.71C1096.67 351.211 1096.18 348.467 1095.22 346.107C1094.3 343.714 1092.88 341.864 1090.96 340.556C1089.05 339.216 1086.59 338.546 1083.6 338.546ZM1172.45 386.398C1165.81 386.398 1160.55 384.133 1156.66 379.603C1152.8 375.073 1150.87 368.342 1150.87 359.409C1150.87 350.381 1152.84 343.571 1156.8 338.977C1160.75 334.351 1166.02 332.038 1172.59 332.038C1175.37 332.038 1177.79 332.405 1179.86 333.139C1181.94 333.873 1183.72 334.862 1185.22 336.106C1186.72 337.318 1187.98 338.706 1189 340.269H1189.58C1189.45 339.28 1189.32 337.924 1189.19 336.201C1189.07 334.479 1189 333.075 1189 331.99V310.984H1196.95V385.441H1190.53L1189.34 377.976H1189C1188.01 379.539 1186.75 380.959 1185.22 382.235C1183.72 383.511 1181.92 384.531 1179.82 385.297C1177.74 386.031 1175.29 386.398 1172.45 386.398ZM1173.69 379.794C1179.3 379.794 1183.28 378.199 1185.61 375.009C1187.93 371.819 1189.1 367.082 1189.1 360.797V359.362C1189.1 352.694 1187.98 347.574 1185.75 344.001C1183.55 340.428 1179.53 338.642 1173.69 338.642C1168.81 338.642 1165.16 340.524 1162.73 344.288C1160.31 348.021 1159.1 353.125 1159.1 359.601C1159.1 366.045 1160.29 371.021 1162.68 374.531C1165.11 378.04 1168.78 379.794 1173.69 379.794ZM1238.88 332.038C1243.35 332.038 1247.18 333.027 1250.37 335.005C1253.56 336.983 1256 339.758 1257.69 343.331C1259.38 346.872 1260.23 351.019 1260.23 355.773V360.701H1224C1224.1 366.858 1225.63 371.548 1228.6 374.77C1231.56 377.992 1235.74 379.603 1241.13 379.603C1244.45 379.603 1247.38 379.3 1249.94 378.694C1252.49 378.087 1255.14 377.194 1257.88 376.014V383C1255.23 384.181 1252.6 385.042 1249.98 385.584C1247.4 386.127 1244.34 386.398 1240.8 386.398C1235.76 386.398 1231.35 385.377 1227.59 383.335C1223.86 381.262 1220.95 378.231 1218.88 374.243C1216.81 370.256 1215.77 365.375 1215.77 359.601C1215.77 353.954 1216.71 349.073 1218.59 344.958C1220.51 340.811 1223.19 337.621 1226.63 335.388C1230.11 333.155 1234.19 332.038 1238.88 332.038ZM1238.79 338.546C1234.54 338.546 1231.16 339.934 1228.64 342.709C1226.12 345.485 1224.62 349.361 1224.14 354.337H1251.9C1251.87 351.211 1251.37 348.467 1250.42 346.107C1249.49 343.714 1248.07 341.864 1246.16 340.556C1244.24 339.216 1241.79 338.546 1238.79 338.546ZM1316.97 385.441H1308.98V310.984H1316.97V385.441ZM1344.93 315.482L1345.65 316.534C1345.08 318.863 1344.34 321.367 1343.45 324.047C1342.56 326.695 1341.58 329.343 1340.53 331.99C1339.48 334.638 1338.42 337.127 1337.37 339.455H1331.53C1332.01 337.637 1332.49 335.691 1332.97 333.617C1333.48 331.544 1333.96 329.438 1334.4 327.301C1334.85 325.164 1335.25 323.09 1335.6 321.08C1335.98 319.071 1336.3 317.204 1336.56 315.482H1344.93ZM1379.83 332.134C1386.09 332.134 1390.73 333.538 1393.76 336.345C1396.79 339.152 1398.31 343.634 1398.31 349.791V385.441H1392.52L1390.98 377.689H1390.6C1389.13 379.603 1387.6 381.214 1386.01 382.522C1384.41 383.798 1382.56 384.771 1380.46 385.441C1378.38 386.079 1375.83 386.398 1372.8 386.398C1369.61 386.398 1366.77 385.839 1364.28 384.723C1361.83 383.606 1359.88 381.916 1358.45 379.651C1357.04 377.386 1356.34 374.515 1356.34 371.037C1356.34 365.806 1358.41 361.786 1362.56 358.979C1366.71 356.171 1373.02 354.64 1381.51 354.385L1390.55 354.002V350.796C1390.55 346.266 1389.58 343.092 1387.63 341.274C1385.69 339.455 1382.95 338.546 1379.4 338.546C1376.66 338.546 1374.04 338.945 1371.56 339.742C1369.07 340.54 1366.71 341.481 1364.47 342.566L1362.03 336.536C1364.39 335.324 1367.11 334.287 1370.17 333.426C1373.23 332.565 1376.45 332.134 1379.83 332.134ZM1390.46 359.601L1382.47 359.936C1375.93 360.191 1371.32 361.26 1368.64 363.142C1365.96 365.024 1364.62 367.688 1364.62 371.133C1364.62 374.132 1365.53 376.349 1367.35 377.784C1369.16 379.22 1371.57 379.938 1374.57 379.938C1379.23 379.938 1383.04 378.646 1386.01 376.062C1388.97 373.478 1390.46 369.602 1390.46 364.434V359.601ZM1443.4 332.038C1444.45 332.038 1445.55 332.102 1446.7 332.23C1447.85 332.325 1448.87 332.469 1449.77 332.66L1448.76 340.03C1447.9 339.806 1446.94 339.631 1445.89 339.503C1444.84 339.376 1443.85 339.312 1442.92 339.312C1440.82 339.312 1438.82 339.742 1436.94 340.604C1435.09 341.433 1433.46 342.645 1432.06 344.24C1430.66 345.804 1429.56 347.702 1428.76 349.935C1427.96 352.136 1427.56 354.592 1427.56 357.304V385.441H1419.57V332.995H1426.17L1427.04 342.661H1427.37C1428.46 340.715 1429.76 338.945 1431.29 337.35C1432.83 335.723 1434.6 334.431 1436.61 333.474C1438.65 332.517 1440.91 332.038 1443.4 332.038ZM1481.51 379.89C1482.82 379.89 1484.16 379.778 1485.53 379.555C1486.9 379.332 1488.02 379.06 1488.88 378.741V384.914C1487.95 385.329 1486.66 385.68 1485 385.967C1483.38 386.254 1481.78 386.398 1480.22 386.398C1477.44 386.398 1474.92 385.919 1472.66 384.962C1470.39 383.973 1468.57 382.314 1467.2 379.986C1465.86 377.657 1465.19 374.435 1465.19 370.32V339.216H1457.73V335.34L1465.24 332.23L1468.4 320.841H1473.18V332.995H1488.54V339.216H1473.18V370.08C1473.18 373.366 1473.93 375.823 1475.43 377.449C1476.96 379.076 1478.99 379.89 1481.51 379.89ZM672.57 457.038C677.036 457.038 680.864 458.027 684.054 460.005C687.244 461.983 689.684 464.758 691.375 468.331C693.066 471.872 693.911 476.019 693.911 480.773V485.701H657.688C657.783 491.858 659.315 496.548 662.281 499.77C665.248 502.992 669.427 504.603 674.819 504.603C678.136 504.603 681.071 504.3 683.623 503.694C686.175 503.087 688.823 502.194 691.567 501.014V508C688.919 509.181 686.287 510.042 683.671 510.584C681.087 511.127 678.025 511.398 674.484 511.398C669.443 511.398 665.041 510.377 661.277 508.335C657.544 506.262 654.641 503.231 652.568 499.243C650.494 495.256 649.457 490.375 649.457 484.601C649.457 478.954 650.398 474.073 652.281 469.958C654.195 465.811 656.874 462.621 660.32 460.388C663.797 458.155 667.88 457.038 672.57 457.038ZM672.474 463.546C668.231 463.546 664.85 464.934 662.329 467.709C659.809 470.485 658.31 474.361 657.831 479.337H685.585C685.553 476.211 685.059 473.467 684.102 471.107C683.177 468.714 681.757 466.864 679.843 465.556C677.929 464.216 675.473 463.546 672.474 463.546ZM729.245 504.89C730.553 504.89 731.893 504.778 733.265 504.555C734.636 504.332 735.753 504.06 736.614 503.741V509.914C735.689 510.329 734.397 510.68 732.738 510.967C731.111 511.254 729.516 511.398 727.953 511.398C725.178 511.398 722.657 510.919 720.392 509.962C718.127 508.973 716.309 507.314 714.937 504.986C713.598 502.657 712.928 499.435 712.928 495.32V464.216H705.463V460.34L712.975 457.23L716.134 445.841H720.919V457.995H736.279V464.216H720.919V495.08C720.919 498.366 721.668 500.823 723.168 502.449C724.699 504.076 726.725 504.89 729.245 504.89ZM801.156 511.398C794.521 511.398 789.257 509.133 785.365 504.603C781.505 500.073 779.575 493.342 779.575 484.409C779.575 475.381 781.553 468.571 785.509 463.977C789.465 459.351 794.728 457.038 801.3 457.038C804.075 457.038 806.5 457.405 808.573 458.139C810.647 458.873 812.433 459.862 813.933 461.106C815.432 462.318 816.692 463.706 817.713 465.269H818.287C818.16 464.28 818.032 462.924 817.904 461.201C817.777 459.479 817.713 458.075 817.713 456.99V435.984H825.656V510.441H819.244L818.048 502.976H817.713C816.724 504.539 815.464 505.959 813.933 507.235C812.433 508.511 810.631 509.531 808.525 510.297C806.452 511.031 803.995 511.398 801.156 511.398ZM802.4 504.794C808.015 504.794 811.987 503.199 814.315 500.009C816.644 496.819 817.809 492.082 817.809 485.797V484.362C817.809 477.694 816.692 472.574 814.459 469.001C812.258 465.428 808.238 463.642 802.4 463.642C797.52 463.642 793.867 465.524 791.442 469.288C789.018 473.021 787.806 478.125 787.806 484.601C787.806 491.045 789.002 496.021 791.395 499.531C793.819 503.04 797.488 504.794 802.4 504.794ZM867.593 457.038C872.06 457.038 875.888 458.027 879.078 460.005C882.268 461.983 884.708 464.758 886.399 468.331C888.09 471.872 888.935 476.019 888.935 480.773V485.701H852.712C852.807 491.858 854.339 496.548 857.305 499.77C860.272 502.992 864.451 504.603 869.842 504.603C873.16 504.603 876.095 504.3 878.647 503.694C881.199 503.087 883.847 502.194 886.59 501.014V508C883.943 509.181 881.311 510.042 878.695 510.584C876.111 511.127 873.048 511.398 869.507 511.398C864.467 511.398 860.065 510.377 856.3 508.335C852.568 506.262 849.665 503.231 847.591 499.243C845.518 495.256 844.481 490.375 844.481 484.601C844.481 478.954 845.422 474.073 847.304 469.958C849.218 465.811 851.898 462.621 855.343 460.388C858.821 458.155 862.904 457.038 867.593 457.038ZM867.498 463.546C863.255 463.546 859.873 464.934 857.353 467.709C854.833 470.485 853.334 474.361 852.855 479.337H880.609C880.577 476.211 880.083 473.467 879.126 471.107C878.201 468.714 876.781 466.864 874.867 465.556C872.953 464.216 870.496 463.546 867.498 463.546ZM994.63 457.038C1000.4 457.038 1004.76 458.554 1007.69 461.584C1010.63 464.583 1012.1 469.416 1012.1 476.083V510.441H1004.25V476.466C1004.25 472.223 1003.32 469.049 1001.47 466.944C999.654 464.806 996.943 463.738 993.338 463.738C988.265 463.738 984.581 465.205 982.284 468.14C979.987 471.075 978.839 475.397 978.839 481.108V510.441H970.943V476.466C970.943 473.627 970.528 471.266 969.699 469.384C968.902 467.502 967.689 466.098 966.062 465.173C964.467 464.216 962.442 463.738 959.985 463.738C956.508 463.738 953.717 464.455 951.611 465.891C949.506 467.326 947.974 469.464 947.017 472.303C946.092 475.11 945.63 478.572 945.63 482.687V510.441H937.686V457.995H944.098L945.295 465.412H945.725C946.778 463.594 948.102 462.063 949.697 460.819C951.292 459.574 953.079 458.633 955.056 457.995C957.034 457.357 959.14 457.038 961.373 457.038C965.361 457.038 968.694 457.788 971.374 459.287C974.085 460.755 976.047 463.004 977.26 466.034H977.69C979.413 463.004 981.774 460.755 984.772 459.287C987.771 457.788 991.057 457.038 994.63 457.038ZM1076.62 457.995V510.441H1070.11L1068.96 503.072H1068.53C1067.45 504.89 1066.04 506.421 1064.32 507.665C1062.6 508.909 1060.65 509.835 1058.48 510.441C1056.35 511.079 1054.06 511.398 1051.64 511.398C1047.49 511.398 1044.02 510.728 1041.21 509.388C1038.4 508.048 1036.28 505.975 1034.84 503.167C1033.44 500.36 1032.74 496.755 1032.74 492.353V457.995H1040.78V491.779C1040.78 496.149 1041.77 499.419 1043.74 501.588C1045.72 503.726 1048.74 504.794 1052.79 504.794C1056.68 504.794 1059.77 504.06 1062.07 502.593C1064.4 501.126 1066.08 498.972 1067.1 496.133C1068.12 493.262 1068.63 489.753 1068.63 485.606V457.995H1076.62ZM1132.24 496.085C1132.24 499.435 1131.4 502.258 1129.71 504.555C1128.05 506.82 1125.65 508.527 1122.53 509.675C1119.43 510.823 1115.73 511.398 1111.43 511.398C1107.76 511.398 1104.58 511.111 1101.9 510.536C1099.22 509.962 1096.88 509.149 1094.87 508.096V500.775C1097.01 501.827 1099.56 502.784 1102.53 503.646C1105.49 504.507 1108.52 504.938 1111.62 504.938C1116.15 504.938 1119.43 504.204 1121.47 502.737C1123.52 501.269 1124.54 499.275 1124.54 496.755C1124.54 495.32 1124.12 494.059 1123.29 492.975C1122.5 491.858 1121.14 490.79 1119.23 489.769C1117.31 488.716 1114.66 487.568 1111.28 486.323C1107.93 485.047 1105.03 483.787 1102.57 482.543C1100.15 481.267 1098.27 479.72 1096.93 477.902C1095.62 476.083 1094.96 473.723 1094.96 470.82C1094.96 466.385 1096.75 462.988 1100.32 460.627C1103.93 458.235 1108.65 457.038 1114.49 457.038C1117.65 457.038 1120.6 457.357 1123.34 457.995C1126.12 458.601 1128.7 459.431 1131.09 460.484L1128.41 466.848C1126.24 465.923 1123.93 465.141 1121.47 464.503C1119.02 463.865 1116.51 463.546 1113.96 463.546C1110.29 463.546 1107.47 464.152 1105.49 465.365C1103.55 466.577 1102.57 468.236 1102.57 470.341C1102.57 471.968 1103.02 473.308 1103.91 474.361C1104.84 475.413 1106.31 476.402 1108.32 477.327C1110.33 478.253 1112.97 479.337 1116.26 480.581C1119.54 481.794 1122.38 483.054 1124.78 484.362C1127.17 485.638 1129 487.201 1130.28 489.051C1131.59 490.869 1132.24 493.214 1132.24 496.085ZM1170.11 457.038C1174.58 457.038 1178.41 458.027 1181.6 460.005C1184.79 461.983 1187.23 464.758 1188.92 468.331C1190.61 471.872 1191.45 476.019 1191.45 480.773V485.701H1155.23C1155.32 491.858 1156.86 496.548 1159.82 499.77C1162.79 502.992 1166.97 504.603 1172.36 504.603C1175.68 504.603 1178.61 504.3 1181.16 503.694C1183.72 503.087 1186.36 502.194 1189.11 501.014V508C1186.46 509.181 1183.83 510.042 1181.21 510.584C1178.63 511.127 1175.57 511.398 1172.03 511.398C1166.98 511.398 1162.58 510.377 1158.82 508.335C1155.09 506.262 1152.18 503.231 1150.11 499.243C1148.04 495.256 1147 490.375 1147 484.601C1147 478.954 1147.94 474.073 1149.82 469.958C1151.74 465.811 1154.42 462.621 1157.86 460.388C1161.34 458.155 1165.42 457.038 1170.11 457.038ZM1170.02 463.546C1165.77 463.546 1162.39 464.934 1159.87 467.709C1157.35 470.485 1155.85 474.361 1155.37 479.337H1183.13C1183.09 476.211 1182.6 473.467 1181.64 471.107C1180.72 468.714 1179.3 466.864 1177.38 465.556C1175.47 464.216 1173.01 463.546 1170.02 463.546ZM1183.27 435.362V436.319C1182.63 437.244 1181.75 438.36 1180.64 439.668C1179.55 440.944 1178.34 442.3 1177 443.736C1175.66 445.139 1174.31 446.479 1172.93 447.755C1171.59 449.031 1170.35 450.132 1169.2 451.057H1163.89V449.908C1164.91 448.696 1166.03 447.245 1167.24 445.554C1168.45 443.831 1169.63 442.077 1170.78 440.29C1171.93 438.472 1172.89 436.829 1173.65 435.362H1183.27ZM1255.07 484.122C1255.07 488.429 1254.51 492.273 1253.39 495.655C1252.28 499.036 1250.66 501.891 1248.56 504.22C1246.45 506.549 1243.9 508.335 1240.9 509.579C1237.94 510.792 1234.57 511.398 1230.81 511.398C1227.3 511.398 1224.07 510.792 1221.14 509.579C1218.24 508.335 1215.72 506.549 1213.58 504.22C1211.47 501.891 1209.83 499.036 1208.65 495.655C1207.5 492.273 1206.93 488.429 1206.93 484.122C1206.93 478.38 1207.9 473.499 1209.85 469.48C1211.79 465.428 1214.57 462.35 1218.17 460.244C1221.81 458.107 1226.13 457.038 1231.14 457.038C1235.93 457.038 1240.11 458.107 1243.68 460.244C1247.28 462.382 1250.07 465.476 1252.05 469.528C1254.06 473.547 1255.07 478.412 1255.07 484.122ZM1215.16 484.122C1215.16 488.333 1215.72 491.986 1216.83 495.08C1217.95 498.175 1219.67 500.567 1222 502.258C1224.33 503.949 1227.33 504.794 1231 504.794C1234.63 504.794 1237.62 503.949 1239.95 502.258C1242.31 500.567 1244.04 498.175 1245.16 495.08C1246.28 491.986 1246.84 488.333 1246.84 484.122C1246.84 479.943 1246.28 476.338 1245.16 473.308C1244.04 470.245 1242.32 467.885 1239.99 466.226C1237.66 464.567 1234.65 463.738 1230.95 463.738C1225.49 463.738 1221.49 465.54 1218.94 469.145C1216.42 472.75 1215.16 477.742 1215.16 484.122ZM1281.69 510.441H1273.7V435.984H1281.69V510.441ZM1348.61 484.122C1348.61 488.429 1348.05 492.273 1346.93 495.655C1345.82 499.036 1344.2 501.891 1342.1 504.22C1339.99 506.549 1337.44 508.335 1334.44 509.579C1331.48 510.792 1328.11 511.398 1324.35 511.398C1320.84 511.398 1317.62 510.792 1314.68 509.579C1311.78 508.335 1309.26 506.549 1307.12 504.22C1305.01 501.891 1303.37 499.036 1302.19 495.655C1301.04 492.273 1300.47 488.429 1300.47 484.122C1300.47 478.38 1301.44 473.499 1303.39 469.48C1305.33 465.428 1308.11 462.35 1311.71 460.244C1315.35 458.107 1319.67 457.038 1324.68 457.038C1329.47 457.038 1333.65 458.107 1337.22 460.244C1340.82 462.382 1343.61 465.476 1345.59 469.528C1347.6 473.547 1348.61 478.412 1348.61 484.122ZM1308.7 484.122C1308.7 488.333 1309.26 491.986 1310.37 495.08C1311.49 498.175 1313.21 500.567 1315.54 502.258C1317.87 503.949 1320.87 504.794 1324.54 504.794C1328.17 504.794 1331.16 503.949 1333.49 502.258C1335.85 500.567 1337.59 498.175 1338.7 495.08C1339.82 491.986 1340.38 488.333 1340.38 484.122C1340.38 479.943 1339.82 476.338 1338.7 473.308C1337.59 470.245 1335.86 467.885 1333.53 466.226C1331.2 464.567 1328.19 463.738 1324.49 463.738C1319.03 463.738 1315.03 465.54 1312.48 469.145C1309.96 472.75 1308.7 477.742 1308.7 484.122ZM1381.88 533.984C1374.99 533.984 1369.68 532.692 1365.95 530.108C1362.22 527.556 1360.35 523.967 1360.35 519.341C1360.35 516.055 1361.39 513.248 1363.46 510.919C1365.57 508.59 1368.47 507.043 1372.17 506.278C1370.8 505.64 1369.62 504.683 1368.63 503.406C1367.67 502.13 1367.19 500.663 1367.19 499.004C1367.19 497.09 1367.72 495.415 1368.77 493.98C1369.86 492.512 1371.5 491.109 1373.7 489.769C1370.96 488.652 1368.72 486.77 1367 484.122C1365.31 481.443 1364.46 478.332 1364.46 474.791C1364.46 471.027 1365.25 467.821 1366.81 465.173C1368.37 462.493 1370.64 460.452 1373.6 459.048C1376.57 457.644 1380.16 456.943 1384.37 456.943C1385.3 456.943 1386.22 456.99 1387.15 457.086C1388.1 457.15 1389.01 457.262 1389.87 457.421C1390.74 457.549 1391.49 457.708 1392.12 457.9H1410.12V463.02L1400.45 464.216C1401.41 465.46 1402.2 466.96 1402.84 468.714C1403.48 470.469 1403.8 472.415 1403.8 474.552C1403.8 479.784 1402.03 483.947 1398.49 487.041C1394.95 490.104 1390.08 491.635 1383.89 491.635C1382.43 491.635 1380.93 491.507 1379.39 491.252C1377.83 492.114 1376.64 493.071 1375.81 494.123C1375.01 495.176 1374.61 496.388 1374.61 497.76C1374.61 498.781 1374.91 499.594 1375.52 500.2C1376.16 500.807 1377.07 501.253 1378.25 501.54C1379.43 501.795 1380.85 501.923 1382.5 501.923H1391.74C1397.45 501.923 1401.82 503.119 1404.85 505.512C1407.91 507.905 1409.45 511.398 1409.45 515.991C1409.45 521.797 1407.08 526.248 1402.36 529.342C1397.64 532.436 1390.82 533.984 1381.88 533.984ZM1382.12 527.763C1386.46 527.763 1390.05 527.316 1392.89 526.423C1395.76 525.562 1397.9 524.302 1399.3 522.643C1400.74 521.016 1401.45 519.07 1401.45 516.805C1401.45 514.699 1400.98 513.104 1400.02 512.02C1399.06 510.967 1397.66 510.265 1395.81 509.914C1393.96 509.531 1391.69 509.34 1389.01 509.34H1379.92C1377.56 509.34 1375.5 509.707 1373.75 510.441C1371.99 511.174 1370.64 512.259 1369.68 513.695C1368.76 515.13 1368.29 516.917 1368.29 519.054C1368.29 521.893 1369.49 524.046 1371.88 525.514C1374.27 527.013 1377.69 527.763 1382.12 527.763ZM1384.18 485.845C1387.98 485.845 1390.83 484.888 1392.75 482.974C1394.66 481.06 1395.62 478.268 1395.62 474.6C1395.62 470.676 1394.64 467.741 1392.7 465.795C1390.75 463.817 1387.88 462.828 1384.08 462.828C1380.45 462.828 1377.64 463.849 1375.66 465.891C1373.72 467.901 1372.74 470.851 1372.74 474.743C1372.74 478.316 1373.73 481.06 1375.71 482.974C1377.69 484.888 1380.51 485.845 1384.18 485.845ZM1433.29 457.995V510.441H1425.35V457.995H1433.29ZM1429.42 438.376C1430.73 438.376 1431.84 438.807 1432.77 439.668C1433.73 440.498 1434.2 441.806 1434.2 443.592C1434.2 445.347 1433.73 446.655 1432.77 447.516C1431.84 448.377 1430.73 448.808 1429.42 448.808C1428.05 448.808 1426.9 448.377 1425.97 447.516C1425.08 446.655 1424.63 445.347 1424.63 443.592C1424.63 441.806 1425.08 440.498 1425.97 439.668C1426.9 438.807 1428.05 438.376 1429.42 438.376ZM1475.23 457.038C1479.7 457.038 1483.53 458.027 1486.72 460.005C1489.91 461.983 1492.35 464.758 1494.04 468.331C1495.73 471.872 1496.57 476.019 1496.57 480.773V485.701H1460.35C1460.45 491.858 1461.98 496.548 1464.94 499.77C1467.91 502.992 1472.09 504.603 1477.48 504.603C1480.8 504.603 1483.73 504.3 1486.29 503.694C1488.84 503.087 1491.49 502.194 1494.23 501.014V508C1491.58 509.181 1488.95 510.042 1486.33 510.584C1483.75 511.127 1480.69 511.398 1477.15 511.398C1472.11 511.398 1467.7 510.377 1463.94 508.335C1460.21 506.262 1457.3 503.231 1455.23 499.243C1453.16 495.256 1452.12 490.375 1452.12 484.601C1452.12 478.954 1453.06 474.073 1454.94 469.958C1456.86 465.811 1459.54 462.621 1462.98 460.388C1466.46 458.155 1470.54 457.038 1475.23 457.038ZM1475.14 463.546C1470.89 463.546 1467.51 464.934 1464.99 467.709C1462.47 470.485 1460.97 474.361 1460.49 479.337H1488.25C1488.22 476.211 1487.72 473.467 1486.76 471.107C1485.84 468.714 1484.42 466.864 1482.51 465.556C1480.59 464.216 1478.13 463.546 1475.14 463.546ZM1570.16 457.038C1576.38 457.038 1581.09 458.57 1584.28 461.632C1587.47 464.663 1589.06 469.544 1589.06 476.275V510.441H1581.21V476.801C1581.21 472.431 1580.21 469.161 1578.2 466.991C1576.22 464.822 1573.17 463.738 1569.06 463.738C1563.25 463.738 1559.17 465.38 1556.81 468.666C1554.45 471.952 1553.27 476.721 1553.27 482.974V510.441H1545.32V457.995H1551.74L1552.93 465.556H1553.36C1554.48 463.706 1555.9 462.158 1557.62 460.914C1559.35 459.638 1561.28 458.681 1563.41 458.043C1565.55 457.373 1567.8 457.038 1570.16 457.038ZM1653.63 457.995V510.441H1647.12L1645.98 503.072H1645.54C1644.46 504.89 1643.06 506.421 1641.33 507.665C1639.61 508.909 1637.67 509.835 1635.5 510.441C1633.36 511.079 1631.08 511.398 1628.65 511.398C1624.51 511.398 1621.03 510.728 1618.22 509.388C1615.41 508.048 1613.29 505.975 1611.86 503.167C1610.45 500.36 1609.75 496.755 1609.75 492.353V457.995H1617.79V491.779C1617.79 496.149 1618.78 499.419 1620.76 501.588C1622.74 503.726 1625.75 504.794 1629.8 504.794C1633.69 504.794 1636.79 504.06 1639.09 502.593C1641.41 501.126 1643.09 498.972 1644.11 496.133C1645.13 493.262 1645.64 489.753 1645.64 485.606V457.995H1653.63ZM1732.27 457.038C1738.05 457.038 1742.4 458.554 1745.33 461.584C1748.27 464.583 1749.74 469.416 1749.74 476.083V510.441H1741.89V476.466C1741.89 472.223 1740.96 469.049 1739.11 466.944C1737.3 464.806 1734.58 463.738 1730.98 463.738C1725.91 463.738 1722.22 465.205 1719.93 468.14C1717.63 471.075 1716.48 475.397 1716.48 481.108V510.441H1708.58V476.466C1708.58 473.627 1708.17 471.266 1707.34 469.384C1706.54 467.502 1705.33 466.098 1703.7 465.173C1702.11 464.216 1700.08 463.738 1697.63 463.738C1694.15 463.738 1691.36 464.455 1689.25 465.891C1687.15 467.326 1685.62 469.464 1684.66 472.303C1683.73 475.11 1683.27 478.572 1683.27 482.687V510.441H1675.33V457.995H1681.74L1682.94 465.412H1683.37C1684.42 463.594 1685.74 462.063 1687.34 460.819C1688.93 459.574 1690.72 458.633 1692.7 457.995C1694.68 457.357 1696.78 457.038 1699.01 457.038C1703 457.038 1706.34 457.788 1709.02 459.287C1711.73 460.755 1713.69 463.004 1714.9 466.034H1715.33C1717.05 463.004 1719.41 460.755 1722.41 459.287C1725.41 457.788 1728.7 457.038 1732.27 457.038ZM1791.15 457.038C1795.61 457.038 1799.44 458.027 1802.63 460.005C1805.82 461.983 1808.26 464.758 1809.95 468.331C1811.64 471.872 1812.49 476.019 1812.49 480.773V485.701H1776.27C1776.36 491.858 1777.89 496.548 1780.86 499.77C1783.83 502.992 1788.01 504.603 1793.4 504.603C1796.71 504.603 1799.65 504.3 1802.2 503.694C1804.75 503.087 1807.4 502.194 1810.14 501.014V508C1807.5 509.181 1804.87 510.042 1802.25 510.584C1799.67 511.127 1796.6 511.398 1793.06 511.398C1788.02 511.398 1783.62 510.377 1779.85 508.335C1776.12 506.262 1773.22 503.231 1771.15 499.243C1769.07 495.256 1768.04 490.375 1768.04 484.601C1768.04 478.954 1768.98 474.073 1770.86 469.958C1772.77 465.811 1775.45 462.621 1778.9 460.388C1782.37 458.155 1786.46 457.038 1791.15 457.038ZM1791.05 463.546C1786.81 463.546 1783.43 464.934 1780.91 467.709C1778.39 470.485 1776.89 474.361 1776.41 479.337H1804.16C1804.13 476.211 1803.64 473.467 1802.68 471.107C1801.75 468.714 1800.34 466.864 1798.42 465.556C1796.51 464.216 1794.05 463.546 1791.05 463.546ZM1804.31 435.362V436.319C1803.67 437.244 1802.79 438.36 1801.68 439.668C1800.59 440.944 1799.38 442.3 1798.04 443.736C1796.7 445.139 1795.34 446.479 1793.97 447.755C1792.63 449.031 1791.39 450.132 1790.24 451.057H1784.93V449.908C1785.95 448.696 1787.06 447.245 1788.28 445.554C1789.49 443.831 1790.67 442.077 1791.82 440.29C1792.97 438.472 1793.92 436.829 1794.69 435.362H1804.31ZM1854.71 457.038C1855.77 457.038 1856.87 457.102 1858.02 457.23C1859.16 457.325 1860.18 457.469 1861.08 457.66L1860.07 465.03C1859.21 464.806 1858.25 464.631 1857.2 464.503C1856.15 464.376 1855.16 464.312 1854.24 464.312C1852.13 464.312 1850.14 464.742 1848.25 465.604C1846.4 466.433 1844.78 467.645 1843.37 469.24C1841.97 470.804 1840.87 472.702 1840.07 474.935C1839.27 477.136 1838.87 479.592 1838.87 482.304V510.441H1830.88V457.995H1837.49L1838.35 467.661H1838.68C1839.77 465.715 1841.08 463.945 1842.61 462.35C1844.14 460.723 1845.91 459.431 1847.92 458.474C1849.96 457.517 1852.23 457.038 1854.71 457.038ZM1883.83 457.995V510.441H1875.88V457.995H1883.83ZM1879.95 438.376C1881.26 438.376 1882.38 438.807 1883.3 439.668C1884.26 440.498 1884.74 441.806 1884.74 443.592C1884.74 445.347 1884.26 446.655 1883.3 447.516C1882.38 448.377 1881.26 448.808 1879.95 448.808C1878.58 448.808 1877.43 448.377 1876.51 447.516C1875.61 446.655 1875.17 445.347 1875.17 443.592C1875.17 441.806 1875.61 440.498 1876.51 439.668C1877.43 438.807 1878.58 438.376 1879.95 438.376ZM1940.74 533.888V511.398C1940.74 510.154 1940.77 508.718 1940.84 507.091C1940.9 505.464 1941.01 504.06 1941.17 502.88H1940.65C1939.18 505.305 1937.09 507.33 1934.38 508.957C1931.67 510.584 1928.17 511.398 1923.9 511.398C1917.49 511.398 1912.33 509.133 1908.44 504.603C1904.55 500.073 1902.6 493.31 1902.6 484.314C1902.6 478.412 1903.5 473.435 1905.28 469.384C1907.07 465.333 1909.59 462.27 1912.84 460.197C1916.13 458.091 1919.96 457.038 1924.33 457.038C1928.51 457.038 1931.92 457.868 1934.57 459.527C1937.22 461.154 1939.29 463.147 1940.79 465.508H1941.17L1942.37 457.995H1948.68V533.888H1940.74ZM1925.38 504.794C1929.08 504.794 1932.05 504.108 1934.28 502.737C1936.51 501.333 1938.14 499.227 1939.16 496.42C1940.21 493.613 1940.77 490.12 1940.84 485.941V484.266C1940.84 477.503 1939.69 472.383 1937.39 468.906C1935.09 465.396 1931.09 463.642 1925.38 463.642C1920.47 463.642 1916.82 465.524 1914.42 469.288C1912.03 473.021 1910.83 478.093 1910.83 484.505C1910.83 490.917 1912.03 495.91 1914.42 499.483C1916.82 503.024 1920.47 504.794 1925.38 504.794ZM2013.78 457.995V510.441H2007.27L2006.13 503.072H2005.69C2004.61 504.89 2003.21 506.421 2001.48 507.665C1999.76 508.909 1997.82 509.835 1995.65 510.441C1993.51 511.079 1991.23 511.398 1988.8 511.398C1984.66 511.398 1981.18 510.728 1978.37 509.388C1975.56 508.048 1973.44 505.975 1972.01 503.167C1970.6 500.36 1969.9 496.755 1969.9 492.353V457.995H1977.94V491.779C1977.94 496.149 1978.93 499.419 1980.91 501.588C1982.89 503.726 1985.9 504.794 1989.95 504.794C1993.84 504.794 1996.94 504.06 1999.23 502.593C2001.56 501.126 2003.24 498.972 2004.26 496.133C2005.28 493.262 2005.79 489.753 2005.79 485.606V457.995H2013.78ZM2055.67 457.038C2060.14 457.038 2063.97 458.027 2067.16 460.005C2070.35 461.983 2072.79 464.758 2074.48 468.331C2076.17 471.872 2077.01 476.019 2077.01 480.773V485.701H2040.79C2040.89 491.858 2042.42 496.548 2045.38 499.77C2048.35 502.992 2052.53 504.603 2057.92 504.603C2061.24 504.603 2064.17 504.3 2066.72 503.694C2069.28 503.087 2071.92 502.194 2074.67 501.014V508C2072.02 509.181 2069.39 510.042 2066.77 510.584C2064.19 511.127 2061.13 511.398 2057.59 511.398C2052.54 511.398 2048.14 510.377 2044.38 508.335C2040.65 506.262 2037.74 503.231 2035.67 499.243C2033.6 495.256 2032.56 490.375 2032.56 484.601C2032.56 478.954 2033.5 474.073 2035.38 469.958C2037.3 465.811 2039.98 462.621 2043.42 460.388C2046.9 458.155 2050.98 457.038 2055.67 457.038ZM2055.58 463.546C2051.33 463.546 2047.95 464.934 2045.43 467.709C2042.91 470.485 2041.41 474.361 2040.93 479.337H2068.69C2068.65 476.211 2068.16 473.467 2067.2 471.107C2066.28 468.714 2064.86 466.864 2062.94 465.556C2061.03 464.216 2058.57 463.546 2055.58 463.546ZM2129.33 496.085C2129.33 499.435 2128.49 502.258 2126.8 504.555C2125.14 506.82 2122.75 508.527 2119.62 509.675C2116.53 510.823 2112.83 511.398 2108.52 511.398C2104.85 511.398 2101.68 511.111 2099 510.536C2096.32 509.962 2093.97 509.149 2091.96 508.096V500.775C2094.1 501.827 2096.65 502.784 2099.62 503.646C2102.58 504.507 2105.62 504.938 2108.71 504.938C2113.24 504.938 2116.53 504.204 2118.57 502.737C2120.61 501.269 2121.63 499.275 2121.63 496.755C2121.63 495.32 2121.22 494.059 2120.39 492.975C2119.59 491.858 2118.23 490.79 2116.32 489.769C2114.4 488.716 2111.76 487.568 2108.37 486.323C2105.03 485.047 2102.12 483.787 2099.67 482.543C2097.24 481.267 2095.36 479.72 2094.02 477.902C2092.71 476.083 2092.06 473.723 2092.06 470.82C2092.06 466.385 2093.84 462.988 2097.42 460.627C2101.02 458.235 2105.74 457.038 2111.58 457.038C2114.74 457.038 2117.69 457.357 2120.43 457.995C2123.21 458.601 2125.79 459.431 2128.19 460.484L2125.51 466.848C2123.34 465.923 2121.02 465.141 2118.57 464.503C2116.11 463.865 2113.61 463.546 2111.05 463.546C2107.39 463.546 2104.56 464.152 2102.58 465.365C2100.64 466.577 2099.67 468.236 2099.67 470.341C2099.67 471.968 2100.11 473.308 2101.01 474.361C2101.93 475.413 2103.4 476.402 2105.41 477.327C2107.42 478.253 2110.07 479.337 2113.35 480.581C2116.64 481.794 2119.48 483.054 2121.87 484.362C2124.26 485.638 2126.1 487.201 2127.37 489.051C2128.68 490.869 2129.33 493.214 2129.33 496.085Z" fill="#292E38"/>
</svg>