<?xml version="1.0" encoding="utf-8"?>
<!-- Generator: Adobe Illustrator 21.1.0, SVG Export Plug-In . SVG Version: 6.00 Build 0)  -->
<svg version="1.1" id="Layer_1" xmlns="http://www.w3.org/2000/svg" xmlns:xlink="http://www.w3.org/1999/xlink" x="0px" y="0px"
	 viewBox="0 0 415.6 195.8" style="enable-background:new 0 0 415.6 195.8;" xml:space="preserve">
<style type="text/css">
	.st0{fill:#0047B6;}
</style>
<g>
	<path class="st0" d="M323.9,95.8v18.7l0,0.7l-0.7,0h-9.1l-0.7,0l0-0.7V97.4c0-5-2.9-7.4-6.4-7.4c-3.5,0-6.4,2.4-6.4,7.4v17.1l0,0.7
		l-0.7,0h-9.1l-0.7,0l0-0.7V97.4c0-9.3,7.5-16.8,16.8-16.8c4,0,7.6,1.4,10.5,3.7l0.2,0.6l0.2-0.6c0.3-0.3,0.6-0.6,0.9-0.9l0.6-0.1
		l-0.6-0.3c-2.5-2.8-4-6.4-4-10.4V35.2l0-0.7l0.7,0h9.1l0.7,0l0,0.7v37.3c0,4,2.3,6,5.2,6c2.9,0,5.2-1.9,5.2-6V35.2l0-0.7l0.7,0h9.1
		l0.7,0l0,0.7v37.3c0,4-1.5,7.7-4,10.4l-0.6,0.3l0.6,0.1c0.3,0.3,0.6,0.6,0.9,0.9l0.2,0.6l0.2-0.6c2.9-2.3,6.5-3.7,10.5-3.7
		c9.3,0,16.8,7.5,16.8,16.8v17.1l0,0.7l-0.7,0H361l-0.7,0l0-0.7V97.4c0-5-2.9-7.4-6.4-7.4c-3.5,0-6.4,2.4-6.4,7.4v17.1l0,0.7l-0.7,0
		h-9.1l-0.7,0l0-0.7V95.8c0-5.2-3-7.6-6.6-7.6C326.8,88.2,323.9,90.6,323.9,95.8"/>
	<g>
		<g>
			<path d="M70.1,82.7l-5.1-1v-1.1h11.9v1.1l-3.7,1.1v20.9c0,8.7-4.7,12.2-14.5,12.2c-10,0-14-3.8-14-11.7V82.6l-3.6-0.9v-1.1h15.3
				v1.2l-5.2,0.9v21.2c0,6.4,2.2,9.6,8.9,9.6c7.2,0,9.9-3.3,9.9-10.1V82.7"/>
			<path d="M90.7,114.2v1H77.8v-1l3.5-0.8V93.6l-3.2-0.9v-1.1h9.2v3.6c1.1-0.9,4.4-3.9,8.7-3.9c4.5,0,6.7,2.5,6.7,6.8v15.1l3.4,0.8
				v1.1H93.6v-1.1l3.1-0.8V98.8c0-2.3-0.7-4.3-3.6-4.3c-2.5,0-5.1,1.8-5.9,2.3v16.5L90.7,114.2"/>
			<polyline points="117.9,113.3 121.4,114.2 121.4,115.2 108.3,115.2 108.3,114.2 111.8,113.3 111.8,93.6 108.6,92.7 108.6,91.6 
				117.9,91.6 117.9,113.3 			"/>
			<path d="M118.2,83.4c0,1.8-1.6,3.3-3.5,3.3c-1.9,0-3.5-1.5-3.5-3.3c0-1.8,1.6-3.3,3.5-3.3C116.6,80.1,118.2,81.6,118.2,83.4"/>
			<polyline points="222.1,113.3 225.6,114.2 225.6,115.2 212.5,115.2 212.5,114.2 216,113.3 216,93.6 212.9,92.7 212.9,91.6 
				222.1,91.6 222.1,113.3 			"/>
			<path d="M222.4,83.4c0,1.8-1.6,3.3-3.5,3.3c-1.9,0-3.5-1.5-3.5-3.3c0-1.8,1.6-3.3,3.5-3.3C220.8,80.1,222.4,81.6,222.4,83.4"/>
			<polyline points="123.3,93.2 121.6,92.5 121.6,91.6 133,91.6 133,92.5 129.4,93.4 134.6,107.8 139.9,93.3 136.7,92.5 136.7,91.6 
				144.5,91.6 144.5,92.5 142.6,93.4 133.6,115.5 131.7,115.5 123.3,93.2 			"/>
			<path d="M161.2,100h-9.4c0.5-4,2.1-7,4.9-7C159.9,93,161,96.8,161.2,100L161.2,100z M151.5,101.9h15.6
				c-0.2-6.5-3.6-10.6-10.4-10.6c-6.7,0-11.7,5.8-11.7,12.2c0,7.4,4.8,12.2,11.8,12.2c5.9,0,9-2.3,10.8-3.7l-1-1.6
				c-1.4,0.8-4.1,2.7-8.7,2.4C153.3,112.6,151,107.8,151.5,101.9"/>
			<path d="M207.7,92.5l-0.5,5.8H205l-0.5-3.9c-0.8-0.4-1.9-1.3-4.2-1.3c-1.9,0-3.4,1-3.4,3.1c0,2.4,2.7,3.4,5.4,4.6
				c2.6,1.1,6.8,2.7,6.8,6.9c0,4.8-3.9,8.1-8.7,8.1c-4.4,0-6.9-1-7.6-1.3l-0.4-6.4l2.2-0.2l1.3,4.4c0.6,0.5,2.4,1.9,4.5,1.8
				c3,0,4.5-1.6,4.5-3.9c0-2.7-3.8-3.9-6.3-5c-2.3-1.1-5.9-2.1-5.9-7c0-4,3.3-6.8,7.7-6.8C204.3,91.3,206.7,92.2,207.7,92.5"/>
			<polyline points="265.8,83.7 263.5,80.4 255.4,86.7 256.7,88.6 265.8,83.7 			"/>
			<path d="M261.4,100H252c0.5-4,2.1-7,4.9-7C260.1,93,261.1,96.8,261.4,100L261.4,100z M251.7,101.9h15.6
				c-0.2-6.5-3.6-10.6-10.4-10.6c-6.7,0-11.7,5.8-11.7,12.2c0,7.4,4.8,12.2,11.8,12.2c5.9,0,9-2.3,10.8-3.7l-1-1.6
				c-1.4,0.8-4.1,2.7-8.7,2.4C253.5,112.6,251.2,107.8,251.7,101.9"/>
			<path d="M187.1,91.3c-3.4,0-5.8,2.7-7.2,5.8h-0.1v-5.6h-9.6v1l3.6,1v19.7l-3.6,0.8v1h14.8V114l-5.1-0.8V99.7
				c1.4-3.1,3.5-4.4,4.8-4.4c1,0,1.4,0.2,2.1,0.9c0.3,0.2,1.3,0.5,1.9,0.2c1.2-0.5,1.5-1.3,1.5-2.6
				C190.1,92.5,188.7,91.3,187.1,91.3"/>
			<path d="M243.3,112.5c-0.9,0.6-1.8,1-3.1,1c-2.1,0-2.8-1.6-2.8-5.1V93.6l6-0.9v-1.2h-6V80.6h-2c-0.4,6.3-2.6,10.4-8.2,10.9h-0.9
				v1.2l5,0.9v15.2c0,4.8,1.2,6.9,5.7,6.9c3.2,0,5.9-1.2,6.9-2.2L243.3,112.5"/>
		</g>
		<g>
			<path d="M119.3,156.8c-1.3,1-3,1.9-5.5,1.9c-3.3,0-6.1-2.4-6.1-8.9c0-6.7,2.3-9.8,6.1-9.8c2.5,0,4.3,0.9,5.5,2.3V156.8
				L119.3,156.8z M119.3,161.2h9.6v-1l-3.6-0.8v-32.7h-9.9v1.1l3.8,1.1v11c-1.7-1.4-4.2-2.6-7.6-2.6c-6,0-10.4,5.3-10.4,12.6
				c0,7.5,4.1,11.8,10.5,11.8c3.1,0,5.7-1.2,7.5-2.9V161.2"/>
			<path d="M146.8,146.1h-9.4c0.5-4,2.1-7,4.9-7C145.6,139.1,146.6,142.8,146.8,146.1L146.8,146.1z M137.2,148h15.6
				c-0.2-6.5-3.6-10.6-10.4-10.6c-6.7,0-11.7,5.8-11.7,12.2c0,7.4,4.8,12.2,11.8,12.2c5.9,0,9-2.3,10.8-3.7l-1-1.6
				c-1.4,0.8-4.1,2.7-8.7,2.4C139,158.6,136.7,153.9,137.2,148"/>
		</g>
		<g>
			<polyline points="209.6,126.7 209.6,127.7 206,128.7 206,159.2 209.6,160.2 209.6,161.2 194.6,161.2 194.6,160.1 199.4,159.2 
				199.4,134.9 188.2,161.2 185.6,161.2 174.6,134.8 174.6,159.2 179.2,160 179.2,161.2 168.4,161.2 168.4,160.2 171.4,159.3 
				171.4,128.6 168.4,127.7 168.4,126.7 178,126.7 188.8,153.1 199.8,126.7 209.6,126.7 			"/>
			<path d="M224.7,139c4.1,0,6.3,4.6,6.3,10.5c0,5.8-2.2,10.6-6.3,10.6c-4.1,0-6.3-4.8-6.3-10.6C218.4,143.7,220.6,139,224.7,139
				L224.7,139z M224.7,137.3c-6.8,0-12.9,4.7-12.9,12.2c0,7.3,6.2,12.2,12.9,12.2c6.8,0,12.9-4.9,12.9-12.2
				C237.6,142.1,231.5,137.3,224.7,137.3"/>
			<path d="M349.6,157.4c-1.2,0.8-2.3,1.6-4.2,1.6c-3.1,0.1-3.9-1.9-3.9-4.1c0-2.3,1.5-3.8,4.4-4.3l3.8-0.4V157.4L349.6,157.4z
				 M349.6,144.6v4l-5.4,0.3c-5.2,0.2-8.4,3-8.4,6.8c0,3.9,2.9,6.1,6.8,6.1c3.2,0,5.5-1.5,7-2.7v2.1h8.8v-1l-2.9-0.8v-15.8
				c0-3.4-2.3-6.2-7.4-6.2c-5.3,0-8.5,1.5-10.4,2.3v5.5h2.6l0.9-4.5c0.6-0.3,2.2-0.8,4.8-0.6C349.2,140.2,349.6,142.4,349.6,144.6"
				/>
			<polyline points="374.3,160.2 374.3,161.2 361.2,161.2 361.2,160.2 364.7,159.4 364.7,128.7 361.2,127.8 361.2,126.7 
				370.8,126.7 370.8,159.4 374.3,160.2 			"/>
			<path d="M252.9,160.2v1H240v-1l3.5-0.8v-19.7l-3.2-0.9v-1.1h9.2v3.6c1.1-0.9,4.4-3.9,8.7-3.9c4.5,0,6.7,2.5,6.7,6.8v15.1l3.4,0.8
				v1.1h-12.5v-1.1l3.1-0.8v-14.5c0-2.3-0.7-4.3-3.6-4.3c-2.5,0-5.1,1.8-5.9,2.3v16.5L252.9,160.2"/>
			<path d="M305.9,137.4c-3.4,0-5.8,2.7-7.2,5.8h-0.1v-5.6h-9.6v1l3.6,1v19.7l-3.6,0.9v1h14.8v-1.2l-5.1-0.9v-13.4
				c1.4-3.1,3.5-4.4,4.8-4.4c1,0,1.4,0.2,2.1,0.9c0.3,0.2,1.3,0.5,1.9,0.2c1.2-0.5,1.5-1.3,1.5-2.6
				C308.9,138.6,307.5,137.4,305.9,137.4"/>
			<path d="M286.2,158.6c-0.9,0.6-1.8,1-3.1,1c-2.1,0-2.8-1.6-2.8-5.1v-14.9l6.1-0.9v-1.2h-6.1v-10.9h-2c-0.4,6.3-2.6,10.4-8.2,10.9
				h-0.9v1.2l5,0.9v15.2c0,4.8,1.2,6.9,5.7,6.9c3.3,0,5.9-1.2,6.9-2.2L286.2,158.6"/>
			<path d="M325.6,146.1h-9.4c0.5-4,2.1-7,4.9-7C324.3,139.1,325.4,142.8,325.6,146.1L325.6,146.1z M330.1,129.8l-2.3-3.4l-8.1,6.4
				l1.3,1.9L330.1,129.8L330.1,129.8z M315.9,148h15.6c-0.2-6.5-3.6-10.6-10.4-10.6c-6.7,0-11.7,5.8-11.7,12.2
				c0,7.4,4.8,12.2,11.8,12.2c5.9,0,9-2.3,10.8-3.7l-1-1.6c-1.4,0.8-4.1,2.7-8.7,2.4C317.7,158.6,315.5,153.9,315.9,148"/>
		</g>
	</g>
</g>
</svg>
